M48
;Layer_Color=9474304
;FILE_FORMAT=2:5
INCH,LZ
;TYPE=PLATED
T1F00S00C0.01181
T2F00S00C0.03543
T3F00S00C0.03937
T4F00S00C0.09055
%
T01
X0071Y0038
X008Y0032
X00785Y00495
X0084Y00585
X00715Y00695
X00785Y00815
X00845Y00905
X01155
X0113Y0063
X0122Y0052
Y00485
X0135
Y0052
X0133Y0059
X01175Y00335
X01085Y00145
X0139Y00095
X01595Y00245
X0185Y0025
X0175Y0036
X02005Y0054
X0196Y0079
X0178
X016Y0082
X0163Y0091
X0152Y0092
X01335Y01095
X01125Y01245
X0198Y0099
X0207Y0095
X004Y01025
X0052Y0072
Y006
X0043Y0056765
Y00475
X0034Y0059
X0044Y0028
T02
X0209842Y0060039
X0217717
Y0069882
X0209842
X0142Y0021
X0132
X0122
X0108Y012
X0098
X0088
X0078
X0068
X00275Y0086535
Y0075748
Y0064961
Y0054173
Y0043386
X00175Y0048779
Y0059567
Y0070354
Y0081142
T03
X0058Y0008
X0078
X0098
X0108Y0008
T04
X0228346Y0041339
Y0088583
M30
