G04*
G04 #@! TF.GenerationSoftware,Altium Limited,Altium Designer,20.1.12 (249)*
G04*
G04 Layer_Color=16711935*
%FSLAX25Y25*%
%MOIN*%
G70*
G04*
G04 #@! TF.SameCoordinates,324E50B1-46C9-4148-88D5-78795315F549*
G04*
G04*
G04 #@! TF.FilePolarity,Negative*
G04*
G01*
G75*
%ADD30R,0.10500X0.76000*%
G04:AMPARAMS|DCode=52|XSize=63.06mil|YSize=63.06mil|CornerRadius=16.76mil|HoleSize=0mil|Usage=FLASHONLY|Rotation=0.000|XOffset=0mil|YOffset=0mil|HoleType=Round|Shape=RoundedRectangle|*
%AMROUNDEDRECTD52*
21,1,0.06306,0.02953,0,0,0.0*
21,1,0.02953,0.06306,0,0,0.0*
1,1,0.03353,0.01476,-0.01476*
1,1,0.03353,-0.01476,-0.01476*
1,1,0.03353,-0.01476,0.01476*
1,1,0.03353,0.01476,0.01476*
%
%ADD52ROUNDEDRECTD52*%
%ADD53P,0.06825X8X22.5*%
%ADD54C,0.13786*%
%ADD55C,0.05912*%
G04:AMPARAMS|DCode=56|XSize=59.12mil|YSize=59.12mil|CornerRadius=15.78mil|HoleSize=0mil|Usage=FLASHONLY|Rotation=90.000|XOffset=0mil|YOffset=0mil|HoleType=Round|Shape=RoundedRectangle|*
%AMROUNDEDRECTD56*
21,1,0.05912,0.02756,0,0,90.0*
21,1,0.02756,0.05912,0,0,90.0*
1,1,0.03156,0.01378,0.01378*
1,1,0.03156,0.01378,-0.01378*
1,1,0.03156,-0.01378,-0.01378*
1,1,0.03156,-0.01378,0.01378*
%
%ADD56ROUNDEDRECTD56*%
%ADD57R,0.07093X0.07093*%
%ADD58C,0.07093*%
%ADD59C,0.00400*%
%ADD60C,0.06699*%
G04:AMPARAMS|DCode=61|XSize=66.99mil|YSize=66.99mil|CornerRadius=17.75mil|HoleSize=0mil|Usage=FLASHONLY|Rotation=0.000|XOffset=0mil|YOffset=0mil|HoleType=Round|Shape=RoundedRectangle|*
%AMROUNDEDRECTD61*
21,1,0.06699,0.03150,0,0,0.0*
21,1,0.03150,0.06699,0,0,0.0*
1,1,0.03550,0.01575,-0.01575*
1,1,0.03550,-0.01575,-0.01575*
1,1,0.03550,-0.01575,0.01575*
1,1,0.03550,0.01575,0.01575*
%
%ADD61ROUNDEDRECTD61*%
D30*
X97750Y62000D02*
D03*
D52*
X122000Y21000D02*
D03*
X108000Y120000D02*
D03*
D53*
X132000Y21000D02*
D03*
X142000D02*
D03*
X98000Y120000D02*
D03*
X88000D02*
D03*
X78000D02*
D03*
X68000D02*
D03*
D54*
X228346Y41339D02*
D03*
Y88583D02*
D03*
D55*
X217717Y60039D02*
D03*
Y69882D02*
D03*
X209842Y60039D02*
D03*
D56*
Y69882D02*
D03*
D57*
X27500Y86535D02*
D03*
D58*
Y75748D02*
D03*
Y64961D02*
D03*
Y54173D02*
D03*
Y43386D02*
D03*
X17500Y81142D02*
D03*
Y70354D02*
D03*
Y59567D02*
D03*
Y48779D02*
D03*
D59*
X22500Y114173D02*
D03*
Y15748D02*
D03*
X224410D02*
D03*
Y114173D02*
D03*
D60*
X78000Y8000D02*
D03*
X58000D02*
D03*
X98000D02*
D03*
D61*
X108000Y8000D02*
D03*
M02*
