M48
;Layer_Color=9474304
;FILE_FORMAT=2:5
INCH,LZ
;TYPE=PLATED
T01F00S00C0.01181
T02F00S00C0.03543
T03F00S00C0.03937
T04F00S00C0.09055
%
T01
X0208858Y0031299
X0215945Y0036417
X0231102Y0066732
X0226969Y0090354
X0228937Y0110827
X0237992Y010689
X0206299Y0091114
X0191299Y0093614
X0194299Y0102614
X0183299Y0104614
X0164799Y0121114
X0146799Y0102114
X0144299Y0074614
X0153299Y0063614
Y0060114
X0166299
Y0063614
X0164299Y0070614
X0163299Y0046114
X0175787Y0047835
X0192323Y0032874
X0208299Y0049614
X017126Y0020669
X0139764Y0015748
X0142299Y0041114
X0105315Y003937
X0101378Y0060039
X0088583Y005315
Y0084646
X0101378Y0091535
X0114173Y0102362
Y0070866
X0055937Y0071811
Y0083811
X0139764Y0147638
X0051181Y0107283
X0046937Y0068576
Y0059311
X0037937Y0070811
X0047937Y0039811
T02
X0241339Y007185
X0249213
Y0081693
X0241339
X0173583Y003248
X0163583
X0153583
X00275Y0055197
Y0065984
Y0076772
Y0087559
Y0098347
X00175Y0092953
Y0082165
Y0071378
Y006059
T03
X0076457Y0009843
X0096457
X0116457
X0126457Y0009843
T04
X0259842Y005315
Y0100394
M30
