G04*
G04 #@! TF.GenerationSoftware,Altium Limited,Altium Designer,24.3.1 (35)*
G04*
G04 Layer_Physical_Order=1*
G04 Layer_Color=255*
%FSLAX25Y25*%
%MOIN*%
G70*
G04*
G04 #@! TF.SameCoordinates,DD41D466-AE5E-4816-99C6-3666686ED4B2*
G04*
G04*
G04 #@! TF.FilePolarity,Positive*
G04*
G01*
G75*
G04:AMPARAMS|DCode=10|XSize=23.62mil|YSize=47.24mil|CornerRadius=3.54mil|HoleSize=0mil|Usage=FLASHONLY|Rotation=270.000|XOffset=0mil|YOffset=0mil|HoleType=Round|Shape=RoundedRectangle|*
%AMROUNDEDRECTD10*
21,1,0.02362,0.04016,0,0,270.0*
21,1,0.01654,0.04724,0,0,270.0*
1,1,0.00709,-0.02008,-0.00827*
1,1,0.00709,-0.02008,0.00827*
1,1,0.00709,0.02008,0.00827*
1,1,0.00709,0.02008,-0.00827*
%
%ADD10ROUNDEDRECTD10*%
G04:AMPARAMS|DCode=11|XSize=33.47mil|YSize=23.62mil|CornerRadius=2.36mil|HoleSize=0mil|Usage=FLASHONLY|Rotation=90.000|XOffset=0mil|YOffset=0mil|HoleType=Round|Shape=RoundedRectangle|*
%AMROUNDEDRECTD11*
21,1,0.03347,0.01890,0,0,90.0*
21,1,0.02874,0.02362,0,0,90.0*
1,1,0.00472,0.00945,0.01437*
1,1,0.00472,0.00945,-0.01437*
1,1,0.00472,-0.00945,-0.01437*
1,1,0.00472,-0.00945,0.01437*
%
%ADD11ROUNDEDRECTD11*%
%ADD12C,0.03937*%
G04:AMPARAMS|DCode=13|XSize=43.31mil|YSize=23.62mil|CornerRadius=3.54mil|HoleSize=0mil|Usage=FLASHONLY|Rotation=180.000|XOffset=0mil|YOffset=0mil|HoleType=Round|Shape=RoundedRectangle|*
%AMROUNDEDRECTD13*
21,1,0.04331,0.01654,0,0,180.0*
21,1,0.03622,0.02362,0,0,180.0*
1,1,0.00709,-0.01811,0.00827*
1,1,0.00709,0.01811,0.00827*
1,1,0.00709,0.01811,-0.00827*
1,1,0.00709,-0.01811,-0.00827*
%
%ADD13ROUNDEDRECTD13*%
G04:AMPARAMS|DCode=14|XSize=11.81mil|YSize=59.06mil|CornerRadius=2.95mil|HoleSize=0mil|Usage=FLASHONLY|Rotation=90.000|XOffset=0mil|YOffset=0mil|HoleType=Round|Shape=RoundedRectangle|*
%AMROUNDEDRECTD14*
21,1,0.01181,0.05315,0,0,90.0*
21,1,0.00591,0.05906,0,0,90.0*
1,1,0.00591,0.02657,0.00295*
1,1,0.00591,0.02657,-0.00295*
1,1,0.00591,-0.02657,-0.00295*
1,1,0.00591,-0.02657,0.00295*
%
%ADD14ROUNDEDRECTD14*%
G04:AMPARAMS|DCode=15|XSize=11.81mil|YSize=59.06mil|CornerRadius=2.95mil|HoleSize=0mil|Usage=FLASHONLY|Rotation=0.000|XOffset=0mil|YOffset=0mil|HoleType=Round|Shape=RoundedRectangle|*
%AMROUNDEDRECTD15*
21,1,0.01181,0.05315,0,0,0.0*
21,1,0.00591,0.05906,0,0,0.0*
1,1,0.00591,0.00295,-0.02657*
1,1,0.00591,-0.00295,-0.02657*
1,1,0.00591,-0.00295,0.02657*
1,1,0.00591,0.00295,0.02657*
%
%ADD15ROUNDEDRECTD15*%
%ADD16R,0.10630X0.02756*%
G04:AMPARAMS|DCode=17|XSize=27.56mil|YSize=106.3mil|CornerRadius=4.13mil|HoleSize=0mil|Usage=FLASHONLY|Rotation=270.000|XOffset=0mil|YOffset=0mil|HoleType=Round|Shape=RoundedRectangle|*
%AMROUNDEDRECTD17*
21,1,0.02756,0.09803,0,0,270.0*
21,1,0.01929,0.10630,0,0,270.0*
1,1,0.00827,-0.04902,-0.00965*
1,1,0.00827,-0.04902,0.00965*
1,1,0.00827,0.04902,0.00965*
1,1,0.00827,0.04902,-0.00965*
%
%ADD17ROUNDEDRECTD17*%
G04:AMPARAMS|DCode=18|XSize=23.62mil|YSize=43.31mil|CornerRadius=2.36mil|HoleSize=0mil|Usage=FLASHONLY|Rotation=180.000|XOffset=0mil|YOffset=0mil|HoleType=Round|Shape=RoundedRectangle|*
%AMROUNDEDRECTD18*
21,1,0.02362,0.03858,0,0,180.0*
21,1,0.01890,0.04331,0,0,180.0*
1,1,0.00472,-0.00945,0.01929*
1,1,0.00472,0.00945,0.01929*
1,1,0.00472,0.00945,-0.01929*
1,1,0.00472,-0.00945,-0.01929*
%
%ADD18ROUNDEDRECTD18*%
G04:AMPARAMS|DCode=19|XSize=33.47mil|YSize=23.62mil|CornerRadius=2.36mil|HoleSize=0mil|Usage=FLASHONLY|Rotation=180.000|XOffset=0mil|YOffset=0mil|HoleType=Round|Shape=RoundedRectangle|*
%AMROUNDEDRECTD19*
21,1,0.03347,0.01890,0,0,180.0*
21,1,0.02874,0.02362,0,0,180.0*
1,1,0.00472,-0.01437,0.00945*
1,1,0.00472,0.01437,0.00945*
1,1,0.00472,0.01437,-0.00945*
1,1,0.00472,-0.01437,-0.00945*
%
%ADD19ROUNDEDRECTD19*%
G04:AMPARAMS|DCode=20|XSize=49.21mil|YSize=27.56mil|CornerRadius=2.76mil|HoleSize=0mil|Usage=FLASHONLY|Rotation=180.000|XOffset=0mil|YOffset=0mil|HoleType=Round|Shape=RoundedRectangle|*
%AMROUNDEDRECTD20*
21,1,0.04921,0.02205,0,0,180.0*
21,1,0.04370,0.02756,0,0,180.0*
1,1,0.00551,-0.02185,0.01102*
1,1,0.00551,0.02185,0.01102*
1,1,0.00551,0.02185,-0.01102*
1,1,0.00551,-0.02185,-0.01102*
%
%ADD20ROUNDEDRECTD20*%
G04:AMPARAMS|DCode=21|XSize=43.31mil|YSize=31.5mil|CornerRadius=4.72mil|HoleSize=0mil|Usage=FLASHONLY|Rotation=0.000|XOffset=0mil|YOffset=0mil|HoleType=Round|Shape=RoundedRectangle|*
%AMROUNDEDRECTD21*
21,1,0.04331,0.02205,0,0,0.0*
21,1,0.03386,0.03150,0,0,0.0*
1,1,0.00945,0.01693,-0.01102*
1,1,0.00945,-0.01693,-0.01102*
1,1,0.00945,-0.01693,0.01102*
1,1,0.00945,0.01693,0.01102*
%
%ADD21ROUNDEDRECTD21*%
G04:AMPARAMS|DCode=22|XSize=55.12mil|YSize=102.36mil|CornerRadius=8.27mil|HoleSize=0mil|Usage=FLASHONLY|Rotation=180.000|XOffset=0mil|YOffset=0mil|HoleType=Round|Shape=RoundedRectangle|*
%AMROUNDEDRECTD22*
21,1,0.05512,0.08583,0,0,180.0*
21,1,0.03858,0.10236,0,0,180.0*
1,1,0.01654,-0.01929,0.04291*
1,1,0.01654,0.01929,0.04291*
1,1,0.01654,0.01929,-0.04291*
1,1,0.01654,-0.01929,-0.04291*
%
%ADD22ROUNDEDRECTD22*%
G04:AMPARAMS|DCode=23|XSize=39.37mil|YSize=35.43mil|CornerRadius=3.54mil|HoleSize=0mil|Usage=FLASHONLY|Rotation=180.000|XOffset=0mil|YOffset=0mil|HoleType=Round|Shape=RoundedRectangle|*
%AMROUNDEDRECTD23*
21,1,0.03937,0.02835,0,0,180.0*
21,1,0.03228,0.03543,0,0,180.0*
1,1,0.00709,-0.01614,0.01417*
1,1,0.00709,0.01614,0.01417*
1,1,0.00709,0.01614,-0.01417*
1,1,0.00709,-0.01614,-0.01417*
%
%ADD23ROUNDEDRECTD23*%
G04:AMPARAMS|DCode=24|XSize=23.62mil|YSize=43.31mil|CornerRadius=2.36mil|HoleSize=0mil|Usage=FLASHONLY|Rotation=90.000|XOffset=0mil|YOffset=0mil|HoleType=Round|Shape=RoundedRectangle|*
%AMROUNDEDRECTD24*
21,1,0.02362,0.03858,0,0,90.0*
21,1,0.01890,0.04331,0,0,90.0*
1,1,0.00472,0.01929,0.00945*
1,1,0.00472,0.01929,-0.00945*
1,1,0.00472,-0.01929,-0.00945*
1,1,0.00472,-0.01929,0.00945*
%
%ADD24ROUNDEDRECTD24*%
G04:AMPARAMS|DCode=25|XSize=31.5mil|YSize=25.59mil|CornerRadius=6.4mil|HoleSize=0mil|Usage=FLASHONLY|Rotation=90.000|XOffset=0mil|YOffset=0mil|HoleType=Round|Shape=RoundedRectangle|*
%AMROUNDEDRECTD25*
21,1,0.03150,0.01280,0,0,90.0*
21,1,0.01870,0.02559,0,0,90.0*
1,1,0.01280,0.00640,0.00935*
1,1,0.01280,0.00640,-0.00935*
1,1,0.01280,-0.00640,-0.00935*
1,1,0.01280,-0.00640,0.00935*
%
%ADD25ROUNDEDRECTD25*%
G04:AMPARAMS|DCode=26|XSize=31.5mil|YSize=25.59mil|CornerRadius=6.4mil|HoleSize=0mil|Usage=FLASHONLY|Rotation=180.000|XOffset=0mil|YOffset=0mil|HoleType=Round|Shape=RoundedRectangle|*
%AMROUNDEDRECTD26*
21,1,0.03150,0.01280,0,0,180.0*
21,1,0.01870,0.02559,0,0,180.0*
1,1,0.01280,-0.00935,0.00640*
1,1,0.01280,0.00935,0.00640*
1,1,0.01280,0.00935,-0.00640*
1,1,0.01280,-0.00935,-0.00640*
%
%ADD26ROUNDEDRECTD26*%
G04:AMPARAMS|DCode=27|XSize=49.21mil|YSize=27.56mil|CornerRadius=2.76mil|HoleSize=0mil|Usage=FLASHONLY|Rotation=270.000|XOffset=0mil|YOffset=0mil|HoleType=Round|Shape=RoundedRectangle|*
%AMROUNDEDRECTD27*
21,1,0.04921,0.02205,0,0,270.0*
21,1,0.04370,0.02756,0,0,270.0*
1,1,0.00551,-0.01102,-0.02185*
1,1,0.00551,-0.01102,0.02185*
1,1,0.00551,0.01102,0.02185*
1,1,0.00551,0.01102,-0.02185*
%
%ADD27ROUNDEDRECTD27*%
%ADD28C,0.01181*%
%ADD60C,0.01575*%
%ADD61C,0.02362*%
%ADD62C,0.01968*%
%ADD63C,0.01200*%
%ADD64C,0.00984*%
%ADD65C,0.01000*%
%ADD66C,0.06693*%
%ADD67R,0.06693X0.06693*%
G04:AMPARAMS|DCode=68|XSize=59.06mil|YSize=59.06mil|CornerRadius=14.76mil|HoleSize=0mil|Usage=FLASHONLY|Rotation=0.000|XOffset=0mil|YOffset=0mil|HoleType=Round|Shape=RoundedRectangle|*
%AMROUNDEDRECTD68*
21,1,0.05906,0.02953,0,0,0.0*
21,1,0.02953,0.05906,0,0,0.0*
1,1,0.02953,0.01476,-0.01476*
1,1,0.02953,-0.01476,-0.01476*
1,1,0.02953,-0.01476,0.01476*
1,1,0.02953,0.01476,0.01476*
%
%ADD68ROUNDEDRECTD68*%
G04:AMPARAMS|DCode=69|XSize=59.06mil|YSize=59.06mil|CornerRadius=0mil|HoleSize=0mil|Usage=FLASHONLY|Rotation=0.000|XOffset=0mil|YOffset=0mil|HoleType=Round|Shape=Octagon|*
%AMOCTAGOND69*
4,1,8,0.02953,-0.01476,0.02953,0.01476,0.01476,0.02953,-0.01476,0.02953,-0.02953,0.01476,-0.02953,-0.01476,-0.01476,-0.02953,0.01476,-0.02953,0.02953,-0.01476,0.0*
%
%ADD69OCTAGOND69*%

%ADD70C,0.13386*%
%ADD71C,0.05512*%
G04:AMPARAMS|DCode=72|XSize=55.12mil|YSize=55.12mil|CornerRadius=13.78mil|HoleSize=0mil|Usage=FLASHONLY|Rotation=90.000|XOffset=0mil|YOffset=0mil|HoleType=Round|Shape=RoundedRectangle|*
%AMROUNDEDRECTD72*
21,1,0.05512,0.02756,0,0,90.0*
21,1,0.02756,0.05512,0,0,90.0*
1,1,0.02756,0.01378,0.01378*
1,1,0.02756,0.01378,-0.01378*
1,1,0.02756,-0.01378,-0.01378*
1,1,0.02756,-0.01378,0.01378*
%
%ADD72ROUNDEDRECTD72*%
%ADD73C,0.06299*%
G04:AMPARAMS|DCode=74|XSize=62.99mil|YSize=62.99mil|CornerRadius=15.75mil|HoleSize=0mil|Usage=FLASHONLY|Rotation=0.000|XOffset=0mil|YOffset=0mil|HoleType=Round|Shape=RoundedRectangle|*
%AMROUNDEDRECTD74*
21,1,0.06299,0.03150,0,0,0.0*
21,1,0.03150,0.06299,0,0,0.0*
1,1,0.03150,0.01575,-0.01575*
1,1,0.03150,-0.01575,-0.01575*
1,1,0.03150,-0.01575,0.01575*
1,1,0.03150,0.01575,0.01575*
%
%ADD74ROUNDEDRECTD74*%
%ADD75C,0.02756*%
D10*
X83465Y70492D02*
D03*
Y65492D02*
D03*
Y60492D02*
D03*
Y55492D02*
D03*
X105512Y70492D02*
D03*
Y65492D02*
D03*
Y60492D02*
D03*
Y55492D02*
D03*
X83465Y101988D02*
D03*
Y96988D02*
D03*
Y91988D02*
D03*
Y86988D02*
D03*
X105512Y101988D02*
D03*
Y96988D02*
D03*
Y91988D02*
D03*
Y86988D02*
D03*
X118898Y70492D02*
D03*
Y65492D02*
D03*
Y60492D02*
D03*
Y55492D02*
D03*
X140945Y70492D02*
D03*
Y65492D02*
D03*
Y60492D02*
D03*
Y55492D02*
D03*
X118898Y101988D02*
D03*
Y96988D02*
D03*
Y91988D02*
D03*
Y86988D02*
D03*
X140945Y101988D02*
D03*
Y96988D02*
D03*
Y91988D02*
D03*
Y86988D02*
D03*
D11*
X241732Y106890D02*
D03*
X247638D02*
D03*
X197638Y108858D02*
D03*
X203543D02*
D03*
X197638Y123819D02*
D03*
X203543D02*
D03*
X153150Y52559D02*
D03*
X147244D02*
D03*
X153150Y48228D02*
D03*
X147244D02*
D03*
X148031Y114764D02*
D03*
X153937D02*
D03*
X148031Y120276D02*
D03*
X153937D02*
D03*
X148031Y125787D02*
D03*
X153937D02*
D03*
X148031Y131299D02*
D03*
X153937D02*
D03*
X62008Y125197D02*
D03*
X56102D02*
D03*
X62008Y129921D02*
D03*
X56102D02*
D03*
X62008Y140945D02*
D03*
X56102D02*
D03*
X62008Y145669D02*
D03*
X56102D02*
D03*
D12*
X232283Y7874D02*
D03*
X15748Y145669D02*
D03*
D13*
X210827Y77756D02*
D03*
X221850D02*
D03*
Y73819D02*
D03*
X210827D02*
D03*
D14*
X158465Y80315D02*
D03*
Y78347D02*
D03*
Y76378D02*
D03*
Y74409D02*
D03*
Y72441D02*
D03*
Y70472D02*
D03*
Y68504D02*
D03*
Y66535D02*
D03*
Y64567D02*
D03*
Y62598D02*
D03*
Y60630D02*
D03*
Y58661D02*
D03*
Y56693D02*
D03*
Y54724D02*
D03*
Y52756D02*
D03*
Y50787D02*
D03*
X203346D02*
D03*
Y52756D02*
D03*
Y54724D02*
D03*
Y56693D02*
D03*
Y58661D02*
D03*
Y60630D02*
D03*
Y62598D02*
D03*
Y64567D02*
D03*
Y66535D02*
D03*
Y68504D02*
D03*
Y70472D02*
D03*
Y72441D02*
D03*
Y74409D02*
D03*
Y76378D02*
D03*
Y78347D02*
D03*
Y80315D02*
D03*
D15*
X166142Y43110D02*
D03*
X168110D02*
D03*
X170079D02*
D03*
X172047D02*
D03*
X174016D02*
D03*
X175984D02*
D03*
X177953D02*
D03*
X179921D02*
D03*
X181890D02*
D03*
X183858D02*
D03*
X185827D02*
D03*
X187795D02*
D03*
X189764D02*
D03*
X191732D02*
D03*
X193701D02*
D03*
X195669D02*
D03*
Y87992D02*
D03*
X193701D02*
D03*
X191732D02*
D03*
X189764D02*
D03*
X187795D02*
D03*
X185827D02*
D03*
X183858D02*
D03*
X181890D02*
D03*
X179921D02*
D03*
X177953D02*
D03*
X175984D02*
D03*
X174016D02*
D03*
X172047D02*
D03*
X170079D02*
D03*
X168110D02*
D03*
X166142D02*
D03*
D16*
X171457Y128661D02*
D03*
D17*
X187205D02*
D03*
X171457Y123661D02*
D03*
X187205D02*
D03*
X171457Y118661D02*
D03*
Y113661D02*
D03*
Y108661D02*
D03*
X187205Y118661D02*
D03*
Y113661D02*
D03*
Y108661D02*
D03*
D18*
X225197Y115551D02*
D03*
X232677D02*
D03*
Y105315D02*
D03*
X228937D02*
D03*
X225197D02*
D03*
X227165Y80512D02*
D03*
X234646D02*
D03*
Y70276D02*
D03*
X230906D02*
D03*
X227165D02*
D03*
D19*
X149409Y68701D02*
D03*
Y74606D02*
D03*
X230906Y39370D02*
D03*
Y45276D02*
D03*
X226181Y39370D02*
D03*
Y45276D02*
D03*
X221063Y39370D02*
D03*
Y45276D02*
D03*
X215945Y39370D02*
D03*
Y45276D02*
D03*
X233268Y99213D02*
D03*
Y93307D02*
D03*
X149409Y84449D02*
D03*
Y78543D02*
D03*
X230906Y56299D02*
D03*
Y50394D02*
D03*
X226181Y56299D02*
D03*
Y50394D02*
D03*
X221063Y56299D02*
D03*
Y50394D02*
D03*
X215945Y56299D02*
D03*
Y50394D02*
D03*
D20*
X40937Y62551D02*
D03*
Y55071D02*
D03*
X47937Y62551D02*
D03*
Y55071D02*
D03*
X40937Y94071D02*
D03*
Y101551D02*
D03*
X47937Y94071D02*
D03*
Y101551D02*
D03*
Y50551D02*
D03*
Y43071D02*
D03*
X206102Y95276D02*
D03*
Y87795D02*
D03*
X171260Y10039D02*
D03*
Y17520D02*
D03*
D21*
X60630Y65748D02*
D03*
X73228D02*
D03*
Y60236D02*
D03*
X60630D02*
D03*
Y97244D02*
D03*
X73228D02*
D03*
Y91732D02*
D03*
X60630D02*
D03*
D22*
X160236Y9843D02*
D03*
X150787D02*
D03*
X76968Y39370D02*
D03*
X86417D02*
D03*
D23*
X203346Y27165D02*
D03*
X208858D02*
D03*
Y35433D02*
D03*
X203346D02*
D03*
D24*
X41319Y75551D02*
D03*
Y68071D02*
D03*
X51555Y71811D02*
D03*
X41319Y88051D02*
D03*
Y80571D02*
D03*
X51555Y84311D02*
D03*
D25*
X92618Y50197D02*
D03*
X98327D02*
D03*
X92618Y81693D02*
D03*
X98327D02*
D03*
X144653Y80614D02*
D03*
X138945D02*
D03*
X145445Y42114D02*
D03*
X151154D02*
D03*
X187697Y33661D02*
D03*
X181988D02*
D03*
D26*
X140748Y44390D02*
D03*
Y50098D02*
D03*
X200591Y89075D02*
D03*
Y94784D02*
D03*
X183268Y101083D02*
D03*
Y95374D02*
D03*
X212008Y89272D02*
D03*
Y83563D02*
D03*
X211614Y46555D02*
D03*
Y52264D02*
D03*
X226969Y93405D02*
D03*
Y99114D02*
D03*
X196653Y32972D02*
D03*
Y27264D02*
D03*
X203346Y45571D02*
D03*
Y39862D02*
D03*
D27*
X40551Y107283D02*
D03*
X48031D02*
D03*
X155059Y42114D02*
D03*
X162539D02*
D03*
X93701Y39370D02*
D03*
X101181D02*
D03*
X181890Y28150D02*
D03*
X189370D02*
D03*
X225197Y122244D02*
D03*
X232677D02*
D03*
D28*
X181890Y94350D02*
X186653Y99114D01*
X208854Y80315D02*
X212299Y83760D01*
X160343Y28071D02*
X181890D01*
X140945Y60114D02*
X153299D01*
X140945Y65114D02*
X151799D01*
X211154Y46760D02*
X211799D01*
X180252Y33661D02*
X181988D01*
X174016Y39898D02*
X180252Y33661D01*
X153150Y48228D02*
X154528D01*
X157087Y50787D01*
X158465D01*
X153150Y52559D02*
X153347Y52756D01*
X158465D01*
X152362Y78543D02*
X154528Y76378D01*
X158465D01*
X162189Y68504D02*
X164299Y70614D01*
X158465Y68504D02*
X162189D01*
X163299Y50114D02*
Y65835D01*
X162598Y66535D02*
X163299Y65835D01*
X158465Y66535D02*
X162598D01*
X234646Y79768D02*
X234842Y79571D01*
X230709Y76575D02*
X233902Y79768D01*
X234646D01*
X209842Y74409D02*
X210039Y74213D01*
X210236D01*
X203346Y74409D02*
X209842D01*
X210236Y74213D02*
X210827Y73622D01*
X168110Y37803D02*
Y43110D01*
Y37803D02*
X173299Y32614D01*
X166142Y35457D02*
Y43110D01*
X163299Y32614D02*
X166142Y35457D01*
X175787Y47835D02*
X175984Y47638D01*
Y43110D02*
Y47638D01*
X174016Y39898D02*
Y43110D01*
X176299Y63614D02*
X187795Y52118D01*
Y43110D02*
Y52118D01*
X175799Y60114D02*
X185827Y50087D01*
Y43110D02*
Y50087D01*
X195358Y48114D02*
X201394D01*
X193701Y46457D02*
X195358Y48114D01*
X193701Y43110D02*
Y46457D01*
X203346Y50787D02*
X207126D01*
X208299Y49614D01*
X203346Y52756D02*
X211512D01*
X211799Y52469D01*
X223299Y64567D02*
X231299Y56567D01*
X203346Y64567D02*
X223299D01*
X220268Y62598D02*
X226299Y56567D01*
X203346Y62598D02*
X220268D01*
X217236Y60630D02*
X221299Y56567D01*
X203346Y60630D02*
X217236D01*
X203346Y58661D02*
X214205D01*
X216299Y56567D01*
X215945Y36417D02*
Y39307D01*
X226181Y39370D02*
X230906D01*
X221063D02*
X226181D01*
X215945D02*
X221063D01*
X230906Y45276D02*
Y50394D01*
X226181Y45276D02*
Y50394D01*
X221063Y45276D02*
Y50394D01*
X215945Y45276D02*
Y50394D01*
X155059Y42114D02*
X155256D01*
X151154D02*
X155059D01*
X154026Y131388D02*
X161799Y123614D01*
X179921Y87992D02*
Y120866D01*
X183129Y124074D01*
X183405Y129074D02*
X187173D01*
X177962Y122032D02*
Y123632D01*
X183405Y129074D01*
X200591Y87205D02*
Y89075D01*
X196500Y83114D02*
X200591Y87205D01*
Y89075D02*
X202630Y91114D01*
X206299D01*
X210165D02*
X212008Y89272D01*
X206299Y91114D02*
X210165D01*
X206102Y87795D02*
X206299Y87992D01*
Y91114D01*
X204331Y87795D02*
X206102D01*
X199016Y82480D02*
X204331Y87795D01*
X199016Y79331D02*
Y82480D01*
Y79331D02*
X200000Y78347D01*
X203346D01*
X209646Y76378D02*
X210827Y77559D01*
X203346Y76378D02*
X209646D01*
X187299Y83114D02*
X196500D01*
X203346Y80315D02*
X208854D01*
X189764Y87992D02*
Y92079D01*
X191299Y93614D01*
X185827Y84587D02*
X187299Y83114D01*
X185827Y84587D02*
Y87992D01*
X181890D02*
Y94350D01*
X177953Y120299D02*
X177962Y120290D01*
Y117032D02*
Y120290D01*
X177953Y122022D02*
X177962Y122032D01*
X177953Y87992D02*
Y107022D01*
X177962Y107032D02*
Y110290D01*
X177953Y107022D02*
X177962Y107032D01*
X177953Y120299D02*
Y122022D01*
Y110299D02*
X177962Y110290D01*
X177953Y117022D02*
X177962Y117032D01*
X177953Y110299D02*
Y112022D01*
Y115299D02*
Y117022D01*
X177962Y112032D02*
Y115290D01*
X177953Y115299D02*
X177962Y115290D01*
X177953Y112022D02*
X177962Y112032D01*
X161799Y106705D02*
X172047Y96457D01*
X161799Y106705D02*
Y123614D01*
X172047Y87992D02*
Y96457D01*
X154299Y103575D02*
Y115114D01*
Y103575D02*
X166142Y91732D01*
Y87992D02*
Y91732D01*
X170079Y87992D02*
Y94882D01*
X154276Y120638D02*
X157799Y117114D01*
X168110Y87992D02*
Y93307D01*
X157799Y103618D02*
Y117114D01*
Y103618D02*
X168110Y93307D01*
X159799Y105161D02*
Y120614D01*
Y105161D02*
X170079Y94882D01*
X201394Y48114D02*
X203543Y45965D01*
X152362Y78543D02*
Y81496D01*
X149409Y84449D02*
X152362Y81496D01*
X234842Y70472D02*
X236024Y71653D01*
X241142D01*
X234842Y79571D02*
X238299Y76114D01*
X234842Y70472D02*
Y71850D01*
X232087Y74606D02*
X234842Y71850D01*
X222835Y74606D02*
X232087D01*
X221850Y73622D02*
X222835Y74606D01*
Y76575D02*
X230709D01*
X221850Y77559D02*
X222835Y76575D01*
X212799Y99114D02*
X217299Y103614D01*
X208299Y49614D02*
X211154Y46760D01*
X158799Y29614D02*
X160343Y28071D01*
X151154Y39260D02*
Y42114D01*
Y39260D02*
X152299Y38114D01*
X156799D01*
X158799Y36114D01*
X155256Y42114D02*
X163256Y50114D01*
X163299D01*
X158799Y29614D02*
Y36114D01*
X244555Y76114D02*
X249016Y71653D01*
X238299Y76114D02*
X244555D01*
X183299Y101469D02*
Y104614D01*
X154252Y126114D02*
X154299D01*
X159799Y120614D01*
X186653Y99114D02*
X212799D01*
X164799Y121114D02*
X167759Y124074D01*
X171425D01*
X164799Y121114D02*
X166839Y119074D01*
X171425D01*
X164799Y112114D02*
X167839Y109074D01*
X171425D01*
X164799Y112114D02*
Y121114D01*
X187173Y109074D02*
X187213Y109114D01*
X166299Y63614D02*
X176299D01*
X166299Y60114D02*
X175799D01*
X151799Y65114D02*
X153299Y63614D01*
X49213Y125197D02*
X51049D01*
X50131D01*
Y130707D01*
X49213Y129788D01*
X48425Y145537D02*
X49343Y146455D01*
X51180D01*
X52099Y145537D01*
Y141863D01*
X51180Y140945D01*
X49343D01*
X48425Y141863D01*
Y145537D01*
X66142Y50394D02*
X67978D01*
X67060D01*
Y55904D01*
X66142Y54985D01*
X65158Y86481D02*
X66076Y87400D01*
X67913D01*
X68831Y86481D01*
Y82808D01*
X67913Y81890D01*
X66076D01*
X65158Y82808D01*
Y86481D01*
X162402Y127953D02*
X163976Y129527D01*
X162402Y131101D01*
D60*
X220417Y20614D02*
X240453Y40650D01*
Y53445D01*
X142299Y41114D02*
X144445D01*
X145445Y42114D01*
X140748Y42665D02*
X142299Y41114D01*
X140748Y42665D02*
Y44390D01*
Y50098D02*
X140945Y50295D01*
Y55492D01*
X139815Y50098D02*
X140748D01*
X136811Y53102D02*
X139815Y50098D01*
X88583Y53150D02*
X91535Y50197D01*
X92618D01*
X86240Y55492D02*
X88583Y53150D01*
X83465Y55492D02*
X86240D01*
X101378Y60039D02*
X101831Y60492D01*
X105512D01*
X88583Y84646D02*
X91535Y81693D01*
X92618D01*
X86240Y86988D02*
X88583Y84646D01*
X83465Y86988D02*
X86240D01*
X101378Y91535D02*
X101831Y91988D01*
X105512D01*
X114173Y70866D02*
X114547Y70492D01*
X118898D01*
X114173Y102362D02*
X114547Y101988D01*
X118898D01*
X101181Y39370D02*
X105315D01*
X171260Y17520D02*
Y20669D01*
X200799Y20614D02*
X220417D01*
X105512Y55492D02*
X109626D01*
X114626Y60492D01*
X118898D01*
X105512Y70492D02*
X109626D01*
X114626Y65492D01*
X118898D01*
X105512Y86988D02*
X109626D01*
X114626Y91988D01*
X118898D01*
X105512Y101988D02*
X109626D01*
X114626Y96988D01*
X118898D01*
X127953Y134843D02*
X148031Y114764D01*
X71653Y134843D02*
X127953D01*
X62008Y125197D02*
X71653Y134843D01*
X130512Y137795D02*
X148031Y120276D01*
X69882Y137795D02*
X130512D01*
X62008Y129921D02*
X69882Y137795D01*
X132874Y140945D02*
X148031Y125787D01*
X62008Y140945D02*
X132874D01*
X133661Y145669D02*
X148031Y131299D01*
X62008Y145669D02*
X133661D01*
X56102Y145866D02*
X59055Y148819D01*
X56102Y145669D02*
Y145866D01*
Y140945D02*
Y145669D01*
Y129921D02*
Y140945D01*
Y125197D02*
Y129921D01*
X59055Y148819D02*
X138583D01*
X139764Y147638D01*
X17500Y71378D02*
X33504D01*
X17500Y82165D02*
X17500Y82165D01*
X27500Y87559D02*
X27992Y88051D01*
X41319D01*
X44937Y65811D02*
X60630D01*
X47937Y62551D02*
X56543D01*
X58858Y60236D02*
X60630D01*
X56543Y62551D02*
X58858Y60236D01*
X51937Y91811D02*
X60630D01*
X44110Y97244D02*
X60630D01*
X48031Y107283D02*
X51181D01*
X40551Y101937D02*
X40937Y101551D01*
X40551Y101937D02*
Y107283D01*
X203445Y27461D02*
X203740Y27165D01*
X196653Y27461D02*
X203445D01*
X171425Y129074D02*
X175759D01*
X208858Y27953D02*
X209449Y27362D01*
X208858Y34646D02*
X209449Y35236D01*
X140945Y102114D02*
X146799D01*
X162343Y42114D02*
Y45158D01*
X138945Y80614D02*
X140945Y82614D01*
Y86988D01*
X136811Y80614D02*
X138945D01*
X136811D02*
Y103626D01*
X139799Y106614D01*
X136811Y78480D02*
X138945Y80614D01*
X136811Y53102D02*
Y78480D01*
X189370Y29921D02*
X192323Y32874D01*
X189370Y28150D02*
Y29921D01*
X192323Y32874D02*
X192421Y32972D01*
X196653D01*
X191535Y33661D02*
X192323Y32874D01*
X187697Y33661D02*
X191535D01*
X181988Y28248D02*
Y33661D01*
X181890Y28150D02*
X181988Y28248D01*
X181890Y28150D02*
X189425Y20614D01*
X147244Y48228D02*
Y52559D01*
X208858Y31299D02*
Y34646D01*
Y27953D02*
Y31299D01*
X147244Y43913D02*
Y48228D01*
X196653Y27264D02*
Y27461D01*
Y24760D02*
Y27264D01*
X203346Y35827D02*
Y39862D01*
Y35827D02*
X203740Y35433D01*
X223205Y96260D02*
X241929D01*
X226969Y90354D02*
Y93405D01*
X220929Y122244D02*
X225197D01*
X220929D02*
X221299Y122614D01*
X217299Y118614D02*
X220929Y122244D01*
X204748Y122614D02*
X221299D01*
X203543Y123819D02*
X204748Y122614D01*
X203543Y108858D02*
Y123819D01*
X194299Y102614D02*
X197638Y105953D01*
Y108858D01*
X197440Y108661D02*
X197638Y108858D01*
X187205Y108661D02*
X197440D01*
X197480Y123661D02*
X197638Y123819D01*
X187205Y123661D02*
X197480D01*
X203543Y123819D02*
Y130370D01*
X201299Y132614D02*
X203543Y130370D01*
X209252Y27165D02*
X209449Y27362D01*
X209252Y35433D02*
X209449Y35236D01*
X144299Y73811D02*
X149409Y68701D01*
X144299Y73811D02*
Y74614D01*
X149409Y74606D02*
Y78543D01*
X227362Y80709D02*
X231380Y84726D01*
X240453Y53445D02*
X253740Y66732D01*
X240283Y53614D02*
X240453Y53445D01*
X217299Y102165D02*
Y103614D01*
Y87614D02*
Y102165D01*
X223205Y96260D01*
X241929D02*
X253740Y84449D01*
Y66732D02*
Y84449D01*
X189425Y20614D02*
X200799D01*
X196653Y24760D02*
X200799Y20614D01*
X211799Y52469D02*
X212945Y53614D01*
X162343Y45158D02*
X163299Y46114D01*
X145445Y42114D02*
X147244Y43913D01*
X213445Y83760D02*
X217299Y87614D01*
X212299Y83760D02*
X213445D01*
X151299Y134114D02*
X151299Y112114D01*
X151299Y134114D02*
X153299Y136114D01*
X207799D01*
X139799Y106614D02*
X145799D01*
X151299Y112114D01*
X144299Y74614D02*
Y80260D01*
X144653Y80614D01*
X179299Y132614D02*
X201299D01*
X175759Y129074D02*
X179299Y132614D01*
X217299Y103614D02*
Y118614D01*
X47937Y94071D02*
X49677D01*
X51937Y91811D01*
X45437Y83811D02*
Y91571D01*
X47937Y94071D01*
X41319Y80571D02*
X42197D01*
X45437Y83811D01*
X38583Y82165D02*
X40177Y80571D01*
X17500Y82165D02*
X38583D01*
X40177Y80571D02*
X41319D01*
X38579Y70811D02*
X41319Y68071D01*
X37937Y70811D02*
X38579D01*
X40937Y62551D02*
X41677D01*
X44937Y65811D01*
X39437Y66189D02*
X41319Y68071D01*
X39437Y64051D02*
Y66189D01*
Y64051D02*
X40937Y62551D01*
X46937Y68576D02*
Y71311D01*
X42697Y75551D02*
X46937Y71311D01*
X41319Y75551D02*
X42697D01*
X37677D02*
X41319D01*
X33504Y71378D02*
X37677Y75551D01*
X40937Y94071D02*
X44110Y97244D01*
X231380Y84726D02*
X237911D01*
X40937Y88433D02*
X41319Y88051D01*
X40937Y88433D02*
Y94071D01*
X47937Y39811D02*
Y43071D01*
Y50551D02*
Y55071D01*
X46937Y59311D02*
X47937Y60311D01*
Y62551D01*
X55437Y84311D02*
X55937Y83811D01*
X51555Y84311D02*
X55437D01*
X51555Y71811D02*
X55937D01*
X40937Y55071D02*
X47937D01*
X40937Y101551D02*
X47937D01*
X212945Y53614D02*
X240283D01*
X207799Y136114D02*
X221299Y122614D01*
D61*
X214764Y10039D02*
X248031Y43307D01*
Y55118D02*
X257677Y64764D01*
X248031Y43307D02*
Y55118D01*
X76457Y9843D02*
Y38858D01*
X122362Y15748D02*
X139764D01*
X116457Y9843D02*
X122362Y15748D01*
X160236Y9843D02*
X160433Y10039D01*
X171260D01*
X214764D01*
X227398Y99567D02*
X233299D01*
Y89339D02*
Y93307D01*
X225197Y101571D02*
X227299Y99468D01*
X225197Y101571D02*
Y105315D01*
X237992Y106890D02*
X241732D01*
X252953D02*
X259646Y100197D01*
X247638Y106890D02*
X252953D01*
X257677Y64764D02*
Y87402D01*
X245512Y99567D02*
X257677Y87402D01*
X233299Y99567D02*
X245512D01*
X227299Y99468D02*
X227398Y99567D01*
X237911Y84726D02*
X241142Y81496D01*
X233299Y89339D02*
X237911Y84726D01*
D62*
X73484Y91988D02*
X83465D01*
X73228Y91732D02*
X73484Y91988D01*
Y96988D02*
X83465D01*
X73228Y97244D02*
X73484Y96988D01*
Y60492D02*
X83465D01*
X73228Y60236D02*
X73484Y60492D01*
Y65492D02*
X83465D01*
X73228Y65748D02*
X73484Y65492D01*
X98327Y65945D02*
Y81693D01*
Y62992D02*
Y65945D01*
X93779Y70492D02*
X98327Y65945D01*
X83465Y70492D02*
X93779D01*
X98327Y94488D02*
Y98524D01*
Y81693D02*
Y94488D01*
X100827Y96988D01*
X105512D01*
X83465Y101988D02*
X94862D01*
X98327Y98524D01*
Y81693D02*
X109252D01*
X114547Y86988D01*
X118898D01*
X98327Y50197D02*
Y62992D01*
X100827Y65492D01*
X105512D01*
X109252Y50197D02*
X114547Y55492D01*
X118898D01*
X98327Y50197D02*
X109252D01*
X93701Y39370D02*
X98327Y43996D01*
Y50197D01*
X86417Y39370D02*
X93701D01*
X76457Y38858D02*
X76968Y39370D01*
X150787Y9843D02*
X150787Y9843D01*
X126457Y9843D02*
X150787D01*
X233039Y99827D02*
Y105496D01*
X231102Y66732D02*
Y70472D01*
X140945Y70492D02*
X142701D01*
X144299Y72091D01*
X228937Y110827D02*
Y118504D01*
Y105315D02*
Y110827D01*
Y118504D02*
X232677Y122244D01*
X225197Y115551D02*
Y122244D01*
X144299Y72091D02*
Y73811D01*
X233039Y99827D02*
X233299Y99567D01*
D63*
X175378Y70535D02*
X203740D01*
X140945Y92114D02*
X153799D01*
X176409Y72504D02*
X203740D01*
X140945Y97114D02*
X143799D01*
X153799Y92114D02*
X175378Y70535D01*
X143799Y97114D02*
X146299Y94614D01*
X154299D02*
X176409Y72504D01*
X146299Y94614D02*
X154299D01*
D64*
X187795Y94110D02*
X190299Y96614D01*
X187795Y87992D02*
Y94110D01*
X206110Y94968D02*
X206299Y95157D01*
X200799Y94968D02*
X206110D01*
X199153Y96614D02*
X200799Y94968D01*
X190299Y96614D02*
X199153D01*
D65*
X219488Y141640D02*
Y147638D01*
X216489D01*
X215490Y146638D01*
Y142639D01*
X216489Y141640D01*
X219488D01*
X209491D02*
X213490D01*
Y144639D01*
X211491Y143639D01*
X210491D01*
X209491Y144639D01*
Y146638D01*
X210491Y147638D01*
X212491D01*
X213490Y146638D01*
X207492Y142639D02*
X206492Y141640D01*
X204493D01*
X203493Y142639D01*
Y146638D01*
X204493Y147638D01*
X206492D01*
X207492Y146638D01*
Y142639D01*
X201494D02*
X200494Y141640D01*
X198495D01*
X197495Y142639D01*
Y143639D01*
X198495Y144639D01*
X199495D01*
X198495D01*
X197495Y145638D01*
Y146638D01*
X198495Y147638D01*
X200494D01*
X201494Y146638D01*
X191497Y141640D02*
X195496D01*
Y144639D01*
X193497Y143639D01*
X192497D01*
X191497Y144639D01*
Y146638D01*
X192497Y147638D01*
X194496D01*
X195496Y146638D01*
X189498Y144639D02*
X185499D01*
X183500Y142639D02*
X182500Y141640D01*
X180501D01*
X179501Y142639D01*
Y146638D01*
X180501Y147638D01*
X182500D01*
X183500Y146638D01*
Y142639D01*
X177502Y147638D02*
X175502D01*
X176502D01*
Y141640D01*
X177502Y142639D01*
X172503Y144639D02*
X168505D01*
X166505Y142639D02*
X165506Y141640D01*
X163506D01*
X162507Y142639D01*
Y146638D01*
X163506Y147638D01*
X165506D01*
X166505Y146638D01*
Y142639D01*
X160507D02*
X159508Y141640D01*
X157508D01*
X156509Y142639D01*
Y143639D01*
X157508Y144639D01*
X156509Y145638D01*
Y146638D01*
X157508Y147638D01*
X159508D01*
X160507Y146638D01*
Y145638D01*
X159508Y144639D01*
X160507Y143639D01*
Y142639D01*
X159508Y144639D02*
X157508D01*
D66*
X17500Y60590D02*
D03*
Y71378D02*
D03*
Y82165D02*
D03*
Y92953D02*
D03*
X27500Y55197D02*
D03*
Y65984D02*
D03*
Y76772D02*
D03*
Y87559D02*
D03*
D67*
Y98347D02*
D03*
D68*
X153583Y32480D02*
D03*
D69*
X163583D02*
D03*
X173583D02*
D03*
D70*
X259842Y53150D02*
D03*
Y100394D02*
D03*
D71*
X249213Y71850D02*
D03*
Y81693D02*
D03*
X241339Y71850D02*
D03*
D72*
Y81693D02*
D03*
D73*
X96457Y9843D02*
D03*
X76457D02*
D03*
X116457D02*
D03*
D74*
X126457Y9843D02*
D03*
D75*
X114173Y70866D02*
D03*
X101378Y91535D02*
D03*
Y60039D02*
D03*
X139764Y147638D02*
D03*
X171260Y20669D02*
D03*
X208858Y31299D02*
D03*
X175787Y47835D02*
D03*
X215945Y36417D02*
D03*
X237992Y106890D02*
D03*
X228937Y110827D02*
D03*
X163299Y46114D02*
D03*
X142299Y41114D02*
D03*
X88583Y53150D02*
D03*
X146799Y102114D02*
D03*
X191299Y93614D02*
D03*
X194299Y102614D02*
D03*
X183299Y104614D02*
D03*
X164799Y121114D02*
D03*
X139764Y15748D02*
D03*
X37937Y70811D02*
D03*
X46937Y68576D02*
D03*
X226969Y90354D02*
D03*
X105315Y39370D02*
D03*
X88583Y84646D02*
D03*
X114173Y102362D02*
D03*
X46937Y59311D02*
D03*
X47937Y39811D02*
D03*
X55937Y71811D02*
D03*
Y83811D02*
D03*
X153299Y60114D02*
D03*
Y63614D02*
D03*
X166299Y60114D02*
D03*
Y63614D02*
D03*
X164299Y70614D02*
D03*
X206299Y91114D02*
D03*
X208299Y49614D02*
D03*
X231102Y66732D02*
D03*
X192323Y32874D02*
D03*
X51181Y107283D02*
D03*
X144299Y74614D02*
D03*
M02*
