G04*
G04 #@! TF.GenerationSoftware,Altium Limited,Altium Designer,21.6.4 (81)*
G04*
G04 Layer_Color=8388736*
%FSLAX25Y25*%
%MOIN*%
G70*
G04*
G04 #@! TF.SameCoordinates,EBD959BA-066A-46C4-B09C-61E3D241C065*
G04*
G04*
G04 #@! TF.FilePolarity,Negative*
G04*
G01*
G75*
%ADD22R,0.10500X0.76000*%
G04:AMPARAMS|DCode=23|XSize=47.31mil|YSize=35.5mil|CornerRadius=6.72mil|HoleSize=0mil|Usage=FLASHONLY|Rotation=0.000|XOffset=0mil|YOffset=0mil|HoleType=Round|Shape=RoundedRectangle|*
%AMROUNDEDRECTD23*
21,1,0.04731,0.02205,0,0,0.0*
21,1,0.03386,0.03550,0,0,0.0*
1,1,0.01345,0.01693,-0.01102*
1,1,0.01345,-0.01693,-0.01102*
1,1,0.01345,-0.01693,0.01102*
1,1,0.01345,0.01693,0.01102*
%
%ADD23ROUNDEDRECTD23*%
%ADD24R,0.08661X0.08661*%
%ADD25C,0.04337*%
G04:AMPARAMS|DCode=26|XSize=37.47mil|YSize=27.62mil|CornerRadius=4.36mil|HoleSize=0mil|Usage=FLASHONLY|Rotation=90.000|XOffset=0mil|YOffset=0mil|HoleType=Round|Shape=RoundedRectangle|*
%AMROUNDEDRECTD26*
21,1,0.03747,0.01890,0,0,90.0*
21,1,0.02874,0.02762,0,0,90.0*
1,1,0.00872,0.00945,0.01437*
1,1,0.00872,0.00945,-0.01437*
1,1,0.00872,-0.00945,-0.01437*
1,1,0.00872,-0.00945,0.01437*
%
%ADD26ROUNDEDRECTD26*%
G04:AMPARAMS|DCode=27|XSize=35.5mil|YSize=29.59mil|CornerRadius=8.4mil|HoleSize=0mil|Usage=FLASHONLY|Rotation=90.000|XOffset=0mil|YOffset=0mil|HoleType=Round|Shape=RoundedRectangle|*
%AMROUNDEDRECTD27*
21,1,0.03550,0.01280,0,0,90.0*
21,1,0.01870,0.02959,0,0,90.0*
1,1,0.01680,0.00640,0.00935*
1,1,0.01680,0.00640,-0.00935*
1,1,0.01680,-0.00640,-0.00935*
1,1,0.01680,-0.00640,0.00935*
%
%ADD27ROUNDEDRECTD27*%
G04:AMPARAMS|DCode=28|XSize=53.21mil|YSize=31.56mil|CornerRadius=4.76mil|HoleSize=0mil|Usage=FLASHONLY|Rotation=180.000|XOffset=0mil|YOffset=0mil|HoleType=Round|Shape=RoundedRectangle|*
%AMROUNDEDRECTD28*
21,1,0.05321,0.02205,0,0,180.0*
21,1,0.04370,0.03156,0,0,180.0*
1,1,0.00951,-0.02185,0.01102*
1,1,0.00951,0.02185,0.01102*
1,1,0.00951,0.02185,-0.01102*
1,1,0.00951,-0.02185,-0.01102*
%
%ADD28ROUNDEDRECTD28*%
G04:AMPARAMS|DCode=29|XSize=21.32mil|YSize=43.37mil|CornerRadius=4.6mil|HoleSize=0mil|Usage=FLASHONLY|Rotation=270.000|XOffset=0mil|YOffset=0mil|HoleType=Round|Shape=RoundedRectangle|*
%AMROUNDEDRECTD29*
21,1,0.02132,0.03417,0,0,270.0*
21,1,0.01213,0.04337,0,0,270.0*
1,1,0.00920,-0.01709,-0.00606*
1,1,0.00920,-0.01709,0.00606*
1,1,0.00920,0.01709,0.00606*
1,1,0.00920,0.01709,-0.00606*
%
%ADD29ROUNDEDRECTD29*%
G04:AMPARAMS|DCode=30|XSize=27.62mil|YSize=55.18mil|CornerRadius=4.36mil|HoleSize=0mil|Usage=FLASHONLY|Rotation=270.000|XOffset=0mil|YOffset=0mil|HoleType=Round|Shape=RoundedRectangle|*
%AMROUNDEDRECTD30*
21,1,0.02762,0.04646,0,0,270.0*
21,1,0.01890,0.05518,0,0,270.0*
1,1,0.00872,-0.02323,-0.00945*
1,1,0.00872,-0.02323,0.00945*
1,1,0.00872,0.02323,0.00945*
1,1,0.00872,0.02323,-0.00945*
%
%ADD30ROUNDEDRECTD30*%
G04:AMPARAMS|DCode=31|XSize=53.21mil|YSize=31.56mil|CornerRadius=4.76mil|HoleSize=0mil|Usage=FLASHONLY|Rotation=90.000|XOffset=0mil|YOffset=0mil|HoleType=Round|Shape=RoundedRectangle|*
%AMROUNDEDRECTD31*
21,1,0.05321,0.02205,0,0,90.0*
21,1,0.04370,0.03156,0,0,90.0*
1,1,0.00951,0.01102,0.02185*
1,1,0.00951,0.01102,-0.02185*
1,1,0.00951,-0.01102,-0.02185*
1,1,0.00951,-0.01102,0.02185*
%
%ADD31ROUNDEDRECTD31*%
G04:AMPARAMS|DCode=32|XSize=27.62mil|YSize=47.31mil|CornerRadius=4.36mil|HoleSize=0mil|Usage=FLASHONLY|Rotation=90.000|XOffset=0mil|YOffset=0mil|HoleType=Round|Shape=RoundedRectangle|*
%AMROUNDEDRECTD32*
21,1,0.02762,0.03858,0,0,90.0*
21,1,0.01890,0.04731,0,0,90.0*
1,1,0.00872,0.01929,0.00945*
1,1,0.00872,0.01929,-0.00945*
1,1,0.00872,-0.01929,-0.00945*
1,1,0.00872,-0.01929,0.00945*
%
%ADD32ROUNDEDRECTD32*%
G04:AMPARAMS|DCode=33|XSize=63.12mil|YSize=110.36mil|CornerRadius=12.27mil|HoleSize=0mil|Usage=FLASHONLY|Rotation=180.000|XOffset=0mil|YOffset=0mil|HoleType=Round|Shape=RoundedRectangle|*
%AMROUNDEDRECTD33*
21,1,0.06312,0.08583,0,0,180.0*
21,1,0.03858,0.11036,0,0,180.0*
1,1,0.02454,-0.01929,0.04291*
1,1,0.02454,0.01929,0.04291*
1,1,0.02454,0.01929,-0.04291*
1,1,0.02454,-0.01929,-0.04291*
%
%ADD33ROUNDEDRECTD33*%
G04:AMPARAMS|DCode=34|XSize=59.12mil|YSize=106.36mil|CornerRadius=10.27mil|HoleSize=0mil|Usage=FLASHONLY|Rotation=180.000|XOffset=0mil|YOffset=0mil|HoleType=Round|Shape=RoundedRectangle|*
%AMROUNDEDRECTD34*
21,1,0.05912,0.08583,0,0,180.0*
21,1,0.03858,0.10636,0,0,180.0*
1,1,0.02054,-0.01929,0.04291*
1,1,0.02054,0.01929,0.04291*
1,1,0.02054,0.01929,-0.04291*
1,1,0.02054,-0.01929,-0.04291*
%
%ADD34ROUNDEDRECTD34*%
G04:AMPARAMS|DCode=35|XSize=53.21mil|YSize=35.5mil|CornerRadius=5.15mil|HoleSize=0mil|Usage=FLASHONLY|Rotation=0.000|XOffset=0mil|YOffset=0mil|HoleType=Round|Shape=RoundedRectangle|*
%AMROUNDEDRECTD35*
21,1,0.05321,0.02520,0,0,0.0*
21,1,0.04291,0.03550,0,0,0.0*
1,1,0.01030,0.02146,-0.01260*
1,1,0.01030,-0.02146,-0.01260*
1,1,0.01030,-0.02146,0.01260*
1,1,0.01030,0.02146,0.01260*
%
%ADD35ROUNDEDRECTD35*%
%ADD36C,0.06699*%
G04:AMPARAMS|DCode=37|XSize=66.99mil|YSize=66.99mil|CornerRadius=17.75mil|HoleSize=0mil|Usage=FLASHONLY|Rotation=0.000|XOffset=0mil|YOffset=0mil|HoleType=Round|Shape=RoundedRectangle|*
%AMROUNDEDRECTD37*
21,1,0.06699,0.03150,0,0,0.0*
21,1,0.03150,0.06699,0,0,0.0*
1,1,0.03550,0.01575,-0.01575*
1,1,0.03550,-0.01575,-0.01575*
1,1,0.03550,-0.01575,0.01575*
1,1,0.03550,0.01575,0.01575*
%
%ADD37ROUNDEDRECTD37*%
%ADD38P,0.08104X8X202.5*%
G04:AMPARAMS|DCode=39|XSize=74.87mil|YSize=74.87mil|CornerRadius=19.72mil|HoleSize=0mil|Usage=FLASHONLY|Rotation=180.000|XOffset=0mil|YOffset=0mil|HoleType=Round|Shape=RoundedRectangle|*
%AMROUNDEDRECTD39*
21,1,0.07487,0.03543,0,0,180.0*
21,1,0.03543,0.07487,0,0,180.0*
1,1,0.03943,-0.01772,0.01772*
1,1,0.03943,0.01772,0.01772*
1,1,0.03943,0.01772,-0.01772*
1,1,0.03943,-0.01772,-0.01772*
%
%ADD39ROUNDEDRECTD39*%
%ADD40C,0.06337*%
%ADD41P,0.06859X8X292.5*%
%ADD42C,0.07400*%
%ADD43R,0.06337X0.06337*%
G04:AMPARAMS|DCode=44|XSize=63.06mil|YSize=63.06mil|CornerRadius=16.76mil|HoleSize=0mil|Usage=FLASHONLY|Rotation=0.000|XOffset=0mil|YOffset=0mil|HoleType=Round|Shape=RoundedRectangle|*
%AMROUNDEDRECTD44*
21,1,0.06306,0.02953,0,0,0.0*
21,1,0.02953,0.06306,0,0,0.0*
1,1,0.03353,0.01476,-0.01476*
1,1,0.03353,-0.01476,-0.01476*
1,1,0.03353,-0.01476,0.01476*
1,1,0.03353,0.01476,0.01476*
%
%ADD44ROUNDEDRECTD44*%
%ADD45P,0.06825X8X22.5*%
%ADD46R,0.07093X0.07093*%
%ADD47C,0.07093*%
%ADD48C,0.00400*%
D22*
X97750Y62000D02*
D03*
D23*
X52201Y80244D02*
D03*
X64799D02*
D03*
Y85756D02*
D03*
X52201D02*
D03*
Y48244D02*
D03*
X64799D02*
D03*
Y53756D02*
D03*
X52201D02*
D03*
D24*
X43500Y122500D02*
D03*
X192000Y15000D02*
D03*
D25*
X43500Y122500D02*
D03*
X192000Y15000D02*
D03*
D26*
X62008Y101969D02*
D03*
X56102D02*
D03*
X62008Y106299D02*
D03*
X56102D02*
D03*
X62008Y117717D02*
D03*
X56102D02*
D03*
X62008Y122047D02*
D03*
X56102D02*
D03*
X122953Y103500D02*
D03*
X117047D02*
D03*
X122953Y109000D02*
D03*
X117047D02*
D03*
X122953Y114500D02*
D03*
X117047D02*
D03*
X122953Y120000D02*
D03*
X117047D02*
D03*
D27*
X76854Y41500D02*
D03*
X71146D02*
D03*
X118646Y43500D02*
D03*
X124354D02*
D03*
X77354Y73000D02*
D03*
X71646D02*
D03*
X107646Y69000D02*
D03*
X113354D02*
D03*
D28*
X37000Y43260D02*
D03*
Y50740D02*
D03*
X44000Y43260D02*
D03*
Y50740D02*
D03*
Y38740D02*
D03*
Y31260D02*
D03*
X37000Y89740D02*
D03*
Y82260D02*
D03*
X44000Y89740D02*
D03*
Y82260D02*
D03*
D29*
X82118Y79161D02*
D03*
Y81721D02*
D03*
Y84280D02*
D03*
X71882D02*
D03*
Y81721D02*
D03*
Y79161D02*
D03*
X82118Y86839D02*
D03*
X71882D02*
D03*
Y54839D02*
D03*
X82118D02*
D03*
X71882Y47161D02*
D03*
Y49720D02*
D03*
Y52280D02*
D03*
X82118D02*
D03*
Y49720D02*
D03*
Y47161D02*
D03*
D30*
X111024Y75500D02*
D03*
Y80500D02*
D03*
Y85500D02*
D03*
Y90500D02*
D03*
X88976Y75500D02*
D03*
Y80500D02*
D03*
Y85500D02*
D03*
Y90500D02*
D03*
X111024Y43500D02*
D03*
Y48500D02*
D03*
Y53500D02*
D03*
Y58500D02*
D03*
X88976Y43500D02*
D03*
Y48500D02*
D03*
Y53500D02*
D03*
Y58500D02*
D03*
D31*
X182740Y20500D02*
D03*
X175260D02*
D03*
X71760Y33000D02*
D03*
X79240D02*
D03*
D32*
X37382Y76240D02*
D03*
Y68760D02*
D03*
X47618Y72500D02*
D03*
X37382Y63740D02*
D03*
Y56260D02*
D03*
X47618Y60000D02*
D03*
D33*
X179724Y10500D02*
D03*
X54776Y35500D02*
D03*
D34*
X170276Y10500D02*
D03*
X64224Y35500D02*
D03*
D35*
X40000Y102543D02*
D03*
Y95457D02*
D03*
D36*
X98000Y8000D02*
D03*
X58000D02*
D03*
X78000D02*
D03*
D37*
X108000Y8000D02*
D03*
D38*
X159500Y110000D02*
D03*
X169500D02*
D03*
X179500D02*
D03*
X189500D02*
D03*
X159500Y122500D02*
D03*
X169500D02*
D03*
X179500D02*
D03*
X189500D02*
D03*
D39*
X199500Y110000D02*
D03*
Y122500D02*
D03*
D40*
X136500Y75250D02*
D03*
Y65000D02*
D03*
X119000Y75250D02*
D03*
Y65000D02*
D03*
X204000Y35000D02*
D03*
X194000D02*
D03*
X184000D02*
D03*
X174000D02*
D03*
X164000D02*
D03*
X154000D02*
D03*
X144000D02*
D03*
X134000D02*
D03*
X124000D02*
D03*
Y95000D02*
D03*
X134000D02*
D03*
X144000D02*
D03*
X154000D02*
D03*
X164000D02*
D03*
X174000D02*
D03*
X184000D02*
D03*
X194000D02*
D03*
X204000D02*
D03*
X214000D02*
D03*
X224000D02*
D03*
D41*
X214000Y35000D02*
D03*
D42*
X234000D02*
D03*
D43*
X224000D02*
D03*
X234000Y95000D02*
D03*
D44*
X134000Y16000D02*
D03*
D45*
X144000D02*
D03*
X154000D02*
D03*
D46*
X27500Y86535D02*
D03*
D47*
Y75748D02*
D03*
Y64961D02*
D03*
Y54173D02*
D03*
Y43386D02*
D03*
X17500Y81142D02*
D03*
Y70354D02*
D03*
Y59567D02*
D03*
Y48779D02*
D03*
D48*
X22500Y114173D02*
D03*
Y15748D02*
D03*
X224410D02*
D03*
Y114173D02*
D03*
M02*
