G04*
G04 #@! TF.GenerationSoftware,Altium Limited,Altium Designer,21.6.4 (81)*
G04*
G04 Layer_Color=16711935*
%FSLAX25Y25*%
%MOIN*%
G70*
G04*
G04 #@! TF.SameCoordinates,EBD959BA-066A-46C4-B09C-61E3D241C065*
G04*
G04*
G04 #@! TF.FilePolarity,Negative*
G04*
G01*
G75*
%ADD22R,0.10500X0.76000*%
%ADD36C,0.06699*%
G04:AMPARAMS|DCode=37|XSize=66.99mil|YSize=66.99mil|CornerRadius=17.75mil|HoleSize=0mil|Usage=FLASHONLY|Rotation=0.000|XOffset=0mil|YOffset=0mil|HoleType=Round|Shape=RoundedRectangle|*
%AMROUNDEDRECTD37*
21,1,0.06699,0.03150,0,0,0.0*
21,1,0.03150,0.06699,0,0,0.0*
1,1,0.03550,0.01575,-0.01575*
1,1,0.03550,-0.01575,-0.01575*
1,1,0.03550,-0.01575,0.01575*
1,1,0.03550,0.01575,0.01575*
%
%ADD37ROUNDEDRECTD37*%
%ADD38P,0.08104X8X202.5*%
G04:AMPARAMS|DCode=39|XSize=74.87mil|YSize=74.87mil|CornerRadius=19.72mil|HoleSize=0mil|Usage=FLASHONLY|Rotation=180.000|XOffset=0mil|YOffset=0mil|HoleType=Round|Shape=RoundedRectangle|*
%AMROUNDEDRECTD39*
21,1,0.07487,0.03543,0,0,180.0*
21,1,0.03543,0.07487,0,0,180.0*
1,1,0.03943,-0.01772,0.01772*
1,1,0.03943,0.01772,0.01772*
1,1,0.03943,0.01772,-0.01772*
1,1,0.03943,-0.01772,-0.01772*
%
%ADD39ROUNDEDRECTD39*%
%ADD40C,0.06337*%
%ADD41P,0.06859X8X292.5*%
%ADD42C,0.07400*%
%ADD43R,0.06337X0.06337*%
G04:AMPARAMS|DCode=44|XSize=63.06mil|YSize=63.06mil|CornerRadius=16.76mil|HoleSize=0mil|Usage=FLASHONLY|Rotation=0.000|XOffset=0mil|YOffset=0mil|HoleType=Round|Shape=RoundedRectangle|*
%AMROUNDEDRECTD44*
21,1,0.06306,0.02953,0,0,0.0*
21,1,0.02953,0.06306,0,0,0.0*
1,1,0.03353,0.01476,-0.01476*
1,1,0.03353,-0.01476,-0.01476*
1,1,0.03353,-0.01476,0.01476*
1,1,0.03353,0.01476,0.01476*
%
%ADD44ROUNDEDRECTD44*%
%ADD45P,0.06825X8X22.5*%
%ADD46R,0.07093X0.07093*%
%ADD47C,0.07093*%
%ADD48C,0.00400*%
D22*
X97750Y62000D02*
D03*
D36*
X98000Y8000D02*
D03*
X58000D02*
D03*
X78000D02*
D03*
D37*
X108000Y8000D02*
D03*
D38*
X159500Y110000D02*
D03*
X169500D02*
D03*
X179500D02*
D03*
X189500D02*
D03*
X159500Y122500D02*
D03*
X169500D02*
D03*
X179500D02*
D03*
X189500D02*
D03*
D39*
X199500Y110000D02*
D03*
Y122500D02*
D03*
D40*
X136500Y75250D02*
D03*
Y65000D02*
D03*
X119000Y75250D02*
D03*
Y65000D02*
D03*
X204000Y35000D02*
D03*
X194000D02*
D03*
X184000D02*
D03*
X174000D02*
D03*
X164000D02*
D03*
X154000D02*
D03*
X144000D02*
D03*
X134000D02*
D03*
X124000D02*
D03*
Y95000D02*
D03*
X134000D02*
D03*
X144000D02*
D03*
X154000D02*
D03*
X164000D02*
D03*
X174000D02*
D03*
X184000D02*
D03*
X194000D02*
D03*
X204000D02*
D03*
X214000D02*
D03*
X224000D02*
D03*
D41*
X214000Y35000D02*
D03*
D42*
X234000D02*
D03*
D43*
X224000D02*
D03*
X234000Y95000D02*
D03*
D44*
X134000Y16000D02*
D03*
D45*
X144000D02*
D03*
X154000D02*
D03*
D46*
X27500Y86535D02*
D03*
D47*
Y75748D02*
D03*
Y64961D02*
D03*
Y54173D02*
D03*
Y43386D02*
D03*
X17500Y81142D02*
D03*
Y70354D02*
D03*
Y59567D02*
D03*
Y48779D02*
D03*
D48*
X22500Y114173D02*
D03*
Y15748D02*
D03*
X224410D02*
D03*
Y114173D02*
D03*
M02*
