G04*
G04 #@! TF.GenerationSoftware,Altium Limited,Altium Designer,23.2.1 (34)*
G04*
G04 Layer_Physical_Order=1*
G04 Layer_Color=255*
%FSLAX25Y25*%
%MOIN*%
G70*
G04*
G04 #@! TF.SameCoordinates,F4FF07CF-D98B-406E-856D-297B6A820A95*
G04*
G04*
G04 #@! TF.FilePolarity,Positive*
G04*
G01*
G75*
G04:AMPARAMS|DCode=10|XSize=49.21mil|YSize=27.56mil|CornerRadius=2.76mil|HoleSize=0mil|Usage=FLASHONLY|Rotation=0.000|XOffset=0mil|YOffset=0mil|HoleType=Round|Shape=RoundedRectangle|*
%AMROUNDEDRECTD10*
21,1,0.04921,0.02205,0,0,0.0*
21,1,0.04370,0.02756,0,0,0.0*
1,1,0.00551,0.02185,-0.01102*
1,1,0.00551,-0.02185,-0.01102*
1,1,0.00551,-0.02185,0.01102*
1,1,0.00551,0.02185,0.01102*
%
%ADD10ROUNDEDRECTD10*%
%ADD11R,0.02756X0.10630*%
G04:AMPARAMS|DCode=12|XSize=27.56mil|YSize=106.3mil|CornerRadius=4.13mil|HoleSize=0mil|Usage=FLASHONLY|Rotation=180.000|XOffset=0mil|YOffset=0mil|HoleType=Round|Shape=RoundedRectangle|*
%AMROUNDEDRECTD12*
21,1,0.02756,0.09803,0,0,180.0*
21,1,0.01929,0.10630,0,0,180.0*
1,1,0.00827,-0.00965,0.04902*
1,1,0.00827,0.00965,0.04902*
1,1,0.00827,0.00965,-0.04902*
1,1,0.00827,-0.00965,-0.04902*
%
%ADD12ROUNDEDRECTD12*%
G04:AMPARAMS|DCode=13|XSize=33.47mil|YSize=23.62mil|CornerRadius=2.36mil|HoleSize=0mil|Usage=FLASHONLY|Rotation=90.000|XOffset=0mil|YOffset=0mil|HoleType=Round|Shape=RoundedRectangle|*
%AMROUNDEDRECTD13*
21,1,0.03347,0.01890,0,0,90.0*
21,1,0.02874,0.02362,0,0,90.0*
1,1,0.00472,0.00945,0.01437*
1,1,0.00472,0.00945,-0.01437*
1,1,0.00472,-0.00945,-0.01437*
1,1,0.00472,-0.00945,0.01437*
%
%ADD13ROUNDEDRECTD13*%
G04:AMPARAMS|DCode=14|XSize=33.47mil|YSize=23.62mil|CornerRadius=2.36mil|HoleSize=0mil|Usage=FLASHONLY|Rotation=180.000|XOffset=0mil|YOffset=0mil|HoleType=Round|Shape=RoundedRectangle|*
%AMROUNDEDRECTD14*
21,1,0.03347,0.01890,0,0,180.0*
21,1,0.02874,0.02362,0,0,180.0*
1,1,0.00472,-0.01437,0.00945*
1,1,0.00472,0.01437,0.00945*
1,1,0.00472,0.01437,-0.00945*
1,1,0.00472,-0.01437,-0.00945*
%
%ADD14ROUNDEDRECTD14*%
G04:AMPARAMS|DCode=15|XSize=39.37mil|YSize=35.43mil|CornerRadius=3.54mil|HoleSize=0mil|Usage=FLASHONLY|Rotation=0.000|XOffset=0mil|YOffset=0mil|HoleType=Round|Shape=RoundedRectangle|*
%AMROUNDEDRECTD15*
21,1,0.03937,0.02835,0,0,0.0*
21,1,0.03228,0.03543,0,0,0.0*
1,1,0.00709,0.01614,-0.01417*
1,1,0.00709,-0.01614,-0.01417*
1,1,0.00709,-0.01614,0.01417*
1,1,0.00709,0.01614,0.01417*
%
%ADD15ROUNDEDRECTD15*%
G04:AMPARAMS|DCode=16|XSize=11.81mil|YSize=51.18mil|CornerRadius=1.77mil|HoleSize=0mil|Usage=FLASHONLY|Rotation=0.000|XOffset=0mil|YOffset=0mil|HoleType=Round|Shape=RoundedRectangle|*
%AMROUNDEDRECTD16*
21,1,0.01181,0.04764,0,0,0.0*
21,1,0.00827,0.05118,0,0,0.0*
1,1,0.00354,0.00413,-0.02382*
1,1,0.00354,-0.00413,-0.02382*
1,1,0.00354,-0.00413,0.02382*
1,1,0.00354,0.00413,0.02382*
%
%ADD16ROUNDEDRECTD16*%
G04:AMPARAMS|DCode=17|XSize=11.81mil|YSize=51.18mil|CornerRadius=1.77mil|HoleSize=0mil|Usage=FLASHONLY|Rotation=90.000|XOffset=0mil|YOffset=0mil|HoleType=Round|Shape=RoundedRectangle|*
%AMROUNDEDRECTD17*
21,1,0.01181,0.04764,0,0,90.0*
21,1,0.00827,0.05118,0,0,90.0*
1,1,0.00354,0.02382,0.00413*
1,1,0.00354,0.02382,-0.00413*
1,1,0.00354,-0.02382,-0.00413*
1,1,0.00354,-0.02382,0.00413*
%
%ADD17ROUNDEDRECTD17*%
G04:AMPARAMS|DCode=18|XSize=31.5mil|YSize=25.59mil|CornerRadius=6.4mil|HoleSize=0mil|Usage=FLASHONLY|Rotation=270.000|XOffset=0mil|YOffset=0mil|HoleType=Round|Shape=RoundedRectangle|*
%AMROUNDEDRECTD18*
21,1,0.03150,0.01280,0,0,270.0*
21,1,0.01870,0.02559,0,0,270.0*
1,1,0.01280,-0.00640,-0.00935*
1,1,0.01280,-0.00640,0.00935*
1,1,0.01280,0.00640,0.00935*
1,1,0.01280,0.00640,-0.00935*
%
%ADD18ROUNDEDRECTD18*%
G04:AMPARAMS|DCode=19|XSize=31.5mil|YSize=25.59mil|CornerRadius=6.4mil|HoleSize=0mil|Usage=FLASHONLY|Rotation=180.000|XOffset=0mil|YOffset=0mil|HoleType=Round|Shape=RoundedRectangle|*
%AMROUNDEDRECTD19*
21,1,0.03150,0.01280,0,0,180.0*
21,1,0.01870,0.02559,0,0,180.0*
1,1,0.01280,-0.00935,0.00640*
1,1,0.01280,0.00935,0.00640*
1,1,0.01280,0.00935,-0.00640*
1,1,0.01280,-0.00935,-0.00640*
%
%ADD19ROUNDEDRECTD19*%
G04:AMPARAMS|DCode=20|XSize=49.21mil|YSize=27.56mil|CornerRadius=2.76mil|HoleSize=0mil|Usage=FLASHONLY|Rotation=270.000|XOffset=0mil|YOffset=0mil|HoleType=Round|Shape=RoundedRectangle|*
%AMROUNDEDRECTD20*
21,1,0.04921,0.02205,0,0,270.0*
21,1,0.04370,0.02756,0,0,270.0*
1,1,0.00551,-0.01102,-0.02185*
1,1,0.00551,-0.01102,0.02185*
1,1,0.00551,0.01102,0.02185*
1,1,0.00551,0.01102,-0.02185*
%
%ADD20ROUNDEDRECTD20*%
G04:AMPARAMS|DCode=21|XSize=23.62mil|YSize=43.31mil|CornerRadius=2.36mil|HoleSize=0mil|Usage=FLASHONLY|Rotation=180.000|XOffset=0mil|YOffset=0mil|HoleType=Round|Shape=RoundedRectangle|*
%AMROUNDEDRECTD21*
21,1,0.02362,0.03858,0,0,180.0*
21,1,0.01890,0.04331,0,0,180.0*
1,1,0.00472,-0.00945,0.01929*
1,1,0.00472,0.00945,0.01929*
1,1,0.00472,0.00945,-0.01929*
1,1,0.00472,-0.00945,-0.01929*
%
%ADD21ROUNDEDRECTD21*%
G04:AMPARAMS|DCode=22|XSize=55.12mil|YSize=102.36mil|CornerRadius=8.27mil|HoleSize=0mil|Usage=FLASHONLY|Rotation=180.000|XOffset=0mil|YOffset=0mil|HoleType=Round|Shape=RoundedRectangle|*
%AMROUNDEDRECTD22*
21,1,0.05512,0.08583,0,0,180.0*
21,1,0.03858,0.10236,0,0,180.0*
1,1,0.01654,-0.01929,0.04291*
1,1,0.01654,0.01929,0.04291*
1,1,0.01654,0.01929,-0.04291*
1,1,0.01654,-0.01929,-0.04291*
%
%ADD22ROUNDEDRECTD22*%
%ADD23C,0.03937*%
%ADD24R,0.00787X0.00787*%
G04:AMPARAMS|DCode=25|XSize=43.31mil|YSize=31.5mil|CornerRadius=4.72mil|HoleSize=0mil|Usage=FLASHONLY|Rotation=0.000|XOffset=0mil|YOffset=0mil|HoleType=Round|Shape=RoundedRectangle|*
%AMROUNDEDRECTD25*
21,1,0.04331,0.02205,0,0,0.0*
21,1,0.03386,0.03150,0,0,0.0*
1,1,0.00945,0.01693,-0.01102*
1,1,0.00945,-0.01693,-0.01102*
1,1,0.00945,-0.01693,0.01102*
1,1,0.00945,0.01693,0.01102*
%
%ADD25ROUNDEDRECTD25*%
G04:AMPARAMS|DCode=26|XSize=17.32mil|YSize=39.37mil|CornerRadius=2.6mil|HoleSize=0mil|Usage=FLASHONLY|Rotation=270.000|XOffset=0mil|YOffset=0mil|HoleType=Round|Shape=RoundedRectangle|*
%AMROUNDEDRECTD26*
21,1,0.01732,0.03417,0,0,270.0*
21,1,0.01213,0.03937,0,0,270.0*
1,1,0.00520,-0.01709,-0.00606*
1,1,0.00520,-0.01709,0.00606*
1,1,0.00520,0.01709,0.00606*
1,1,0.00520,0.01709,-0.00606*
%
%ADD26ROUNDEDRECTD26*%
G04:AMPARAMS|DCode=27|XSize=23.62mil|YSize=51.18mil|CornerRadius=2.36mil|HoleSize=0mil|Usage=FLASHONLY|Rotation=270.000|XOffset=0mil|YOffset=0mil|HoleType=Round|Shape=RoundedRectangle|*
%AMROUNDEDRECTD27*
21,1,0.02362,0.04646,0,0,270.0*
21,1,0.01890,0.05118,0,0,270.0*
1,1,0.00472,-0.02323,-0.00945*
1,1,0.00472,-0.02323,0.00945*
1,1,0.00472,0.02323,0.00945*
1,1,0.00472,0.02323,-0.00945*
%
%ADD27ROUNDEDRECTD27*%
G04:AMPARAMS|DCode=28|XSize=23.62mil|YSize=43.31mil|CornerRadius=2.36mil|HoleSize=0mil|Usage=FLASHONLY|Rotation=90.000|XOffset=0mil|YOffset=0mil|HoleType=Round|Shape=RoundedRectangle|*
%AMROUNDEDRECTD28*
21,1,0.02362,0.03858,0,0,90.0*
21,1,0.01890,0.04331,0,0,90.0*
1,1,0.00472,0.01929,0.00945*
1,1,0.00472,0.01929,-0.00945*
1,1,0.00472,-0.01929,-0.00945*
1,1,0.00472,-0.01929,0.00945*
%
%ADD28ROUNDEDRECTD28*%
G04:AMPARAMS|DCode=29|XSize=55.12mil|YSize=102.36mil|CornerRadius=8.27mil|HoleSize=0mil|Usage=FLASHONLY|Rotation=90.000|XOffset=0mil|YOffset=0mil|HoleType=Round|Shape=RoundedRectangle|*
%AMROUNDEDRECTD29*
21,1,0.05512,0.08583,0,0,90.0*
21,1,0.03858,0.10236,0,0,90.0*
1,1,0.01654,0.04291,0.01929*
1,1,0.01654,0.04291,-0.01929*
1,1,0.01654,-0.04291,-0.01929*
1,1,0.01654,-0.04291,0.01929*
%
%ADD29ROUNDEDRECTD29*%
%ADD30C,0.01181*%
%ADD66C,0.01575*%
%ADD67C,0.02362*%
%ADD68C,0.01968*%
%ADD69C,0.01200*%
%ADD70C,0.01000*%
%ADD71C,0.06693*%
%ADD72R,0.06693X0.06693*%
G04:AMPARAMS|DCode=73|XSize=59.06mil|YSize=59.06mil|CornerRadius=0mil|HoleSize=0mil|Usage=FLASHONLY|Rotation=0.000|XOffset=0mil|YOffset=0mil|HoleType=Round|Shape=Octagon|*
%AMOCTAGOND73*
4,1,8,0.02953,-0.01476,0.02953,0.01476,0.01476,0.02953,-0.01476,0.02953,-0.02953,0.01476,-0.02953,-0.01476,-0.01476,-0.02953,0.01476,-0.02953,0.02953,-0.01476,0.0*
%
%ADD73OCTAGOND73*%

G04:AMPARAMS|DCode=74|XSize=59.06mil|YSize=59.06mil|CornerRadius=14.76mil|HoleSize=0mil|Usage=FLASHONLY|Rotation=0.000|XOffset=0mil|YOffset=0mil|HoleType=Round|Shape=RoundedRectangle|*
%AMROUNDEDRECTD74*
21,1,0.05906,0.02953,0,0,0.0*
21,1,0.02953,0.05906,0,0,0.0*
1,1,0.02953,0.01476,-0.01476*
1,1,0.02953,-0.01476,-0.01476*
1,1,0.02953,-0.01476,0.01476*
1,1,0.02953,0.01476,0.01476*
%
%ADD74ROUNDEDRECTD74*%
G04:AMPARAMS|DCode=75|XSize=59.06mil|YSize=59.06mil|CornerRadius=0mil|HoleSize=0mil|Usage=FLASHONLY|Rotation=90.000|XOffset=0mil|YOffset=0mil|HoleType=Round|Shape=Octagon|*
%AMOCTAGOND75*
4,1,8,0.01476,0.02953,-0.01476,0.02953,-0.02953,0.01476,-0.02953,-0.01476,-0.01476,-0.02953,0.01476,-0.02953,0.02953,-0.01476,0.02953,0.01476,0.01476,0.02953,0.0*
%
%ADD75OCTAGOND75*%

G04:AMPARAMS|DCode=76|XSize=59.06mil|YSize=59.06mil|CornerRadius=14.76mil|HoleSize=0mil|Usage=FLASHONLY|Rotation=90.000|XOffset=0mil|YOffset=0mil|HoleType=Round|Shape=RoundedRectangle|*
%AMROUNDEDRECTD76*
21,1,0.05906,0.02953,0,0,90.0*
21,1,0.02953,0.05906,0,0,90.0*
1,1,0.02953,0.01476,0.01476*
1,1,0.02953,0.01476,-0.01476*
1,1,0.02953,-0.01476,-0.01476*
1,1,0.02953,-0.01476,0.01476*
%
%ADD76ROUNDEDRECTD76*%
%ADD77C,0.13386*%
%ADD78C,0.05512*%
G04:AMPARAMS|DCode=79|XSize=55.12mil|YSize=55.12mil|CornerRadius=13.78mil|HoleSize=0mil|Usage=FLASHONLY|Rotation=90.000|XOffset=0mil|YOffset=0mil|HoleType=Round|Shape=RoundedRectangle|*
%AMROUNDEDRECTD79*
21,1,0.05512,0.02756,0,0,90.0*
21,1,0.02756,0.05512,0,0,90.0*
1,1,0.02756,0.01378,0.01378*
1,1,0.02756,0.01378,-0.01378*
1,1,0.02756,-0.01378,-0.01378*
1,1,0.02756,-0.01378,0.01378*
%
%ADD79ROUNDEDRECTD79*%
%ADD80C,0.06299*%
G04:AMPARAMS|DCode=81|XSize=62.99mil|YSize=62.99mil|CornerRadius=15.75mil|HoleSize=0mil|Usage=FLASHONLY|Rotation=0.000|XOffset=0mil|YOffset=0mil|HoleType=Round|Shape=RoundedRectangle|*
%AMROUNDEDRECTD81*
21,1,0.06299,0.03150,0,0,0.0*
21,1,0.03150,0.06299,0,0,0.0*
1,1,0.03150,0.01575,-0.01575*
1,1,0.03150,-0.01575,-0.01575*
1,1,0.03150,-0.01575,0.01575*
1,1,0.03150,0.01575,0.01575*
%
%ADD81ROUNDEDRECTD81*%
%ADD82C,0.02756*%
D10*
X171260Y17520D02*
D03*
Y10039D02*
D03*
X161417Y78543D02*
D03*
Y71063D02*
D03*
X48228Y28740D02*
D03*
Y36220D02*
D03*
X44419Y50413D02*
D03*
Y42933D02*
D03*
Y93933D02*
D03*
Y101413D02*
D03*
X37419D02*
D03*
Y93933D02*
D03*
X44419Y62413D02*
D03*
Y54933D02*
D03*
X37419D02*
D03*
Y62413D02*
D03*
D11*
X211732Y127953D02*
D03*
D12*
Y112205D02*
D03*
X206732Y127953D02*
D03*
Y112205D02*
D03*
X201732Y127953D02*
D03*
X196732D02*
D03*
X191732D02*
D03*
X201732Y112205D02*
D03*
X196732D02*
D03*
X191732D02*
D03*
D13*
X207677Y100394D02*
D03*
X201772D02*
D03*
X218504D02*
D03*
X212598D02*
D03*
X241559Y106811D02*
D03*
X247465D02*
D03*
X230315Y71850D02*
D03*
X224409D02*
D03*
X230315Y76772D02*
D03*
X224409D02*
D03*
X111221Y143701D02*
D03*
X117126D02*
D03*
Y138779D02*
D03*
X111221D02*
D03*
Y133858D02*
D03*
X117126D02*
D03*
Y128937D02*
D03*
X111221D02*
D03*
X208661Y48228D02*
D03*
X214567D02*
D03*
X160433Y55709D02*
D03*
X166339D02*
D03*
Y61614D02*
D03*
X160433D02*
D03*
X62008Y125197D02*
D03*
X56102D02*
D03*
X62008Y129921D02*
D03*
X56102D02*
D03*
X62008Y140945D02*
D03*
X56102D02*
D03*
X62008Y145669D02*
D03*
X56102D02*
D03*
X208661Y53150D02*
D03*
X214567D02*
D03*
D14*
X186024Y116142D02*
D03*
Y110236D02*
D03*
X187835Y19685D02*
D03*
Y25591D02*
D03*
X192756Y31496D02*
D03*
Y25591D02*
D03*
X197677Y25591D02*
D03*
Y19685D02*
D03*
X202598Y31496D02*
D03*
Y25591D02*
D03*
X207520Y19685D02*
D03*
Y25591D02*
D03*
X182913Y31496D02*
D03*
Y25591D02*
D03*
X173071Y31496D02*
D03*
Y25591D02*
D03*
X177992Y25591D02*
D03*
Y19685D02*
D03*
X232512Y93858D02*
D03*
Y99764D02*
D03*
D15*
X152362Y75000D02*
D03*
X146850D02*
D03*
Y66732D02*
D03*
X152362D02*
D03*
D16*
X181102Y86614D02*
D03*
X183071D02*
D03*
X185039D02*
D03*
X187008D02*
D03*
X188976D02*
D03*
X190945D02*
D03*
X192913D02*
D03*
X194882D02*
D03*
X196850D02*
D03*
X198819D02*
D03*
X200787D02*
D03*
X202756D02*
D03*
Y53150D02*
D03*
X200787D02*
D03*
X198819D02*
D03*
X196850D02*
D03*
X194882D02*
D03*
X192913D02*
D03*
X190945D02*
D03*
X188976D02*
D03*
X187008D02*
D03*
X185039D02*
D03*
X183071D02*
D03*
X181102D02*
D03*
D17*
X208661Y80709D02*
D03*
Y78740D02*
D03*
Y76772D02*
D03*
Y74803D02*
D03*
Y72835D02*
D03*
Y70866D02*
D03*
Y68898D02*
D03*
Y66929D02*
D03*
Y64961D02*
D03*
Y62992D02*
D03*
Y61024D02*
D03*
Y59055D02*
D03*
X175197D02*
D03*
Y61024D02*
D03*
Y62992D02*
D03*
Y64961D02*
D03*
Y66929D02*
D03*
Y68898D02*
D03*
Y70866D02*
D03*
Y72835D02*
D03*
Y74803D02*
D03*
Y76772D02*
D03*
Y78740D02*
D03*
Y80709D02*
D03*
D18*
X160531Y66929D02*
D03*
X166240D02*
D03*
X167224Y83661D02*
D03*
X161516D02*
D03*
X72065Y84673D02*
D03*
X77774D02*
D03*
X71565Y53173D02*
D03*
X77274D02*
D03*
D19*
X226512Y99665D02*
D03*
Y93957D02*
D03*
X141732Y72933D02*
D03*
Y78642D02*
D03*
X167323Y70965D02*
D03*
Y76673D02*
D03*
X121063Y87500D02*
D03*
Y81791D02*
D03*
X123031Y56004D02*
D03*
Y50295D02*
D03*
D20*
X224772Y122811D02*
D03*
X232252D02*
D03*
X48031Y107283D02*
D03*
X40551D02*
D03*
D21*
X224772Y115929D02*
D03*
X232252D02*
D03*
Y105693D02*
D03*
X228512D02*
D03*
X224772D02*
D03*
D22*
X150787Y9843D02*
D03*
X160236D02*
D03*
D23*
X232283Y7874D02*
D03*
X15748Y145669D02*
D03*
D24*
X232283Y7874D02*
D03*
X15748Y145669D02*
D03*
D25*
X52620Y65429D02*
D03*
X65219D02*
D03*
Y59917D02*
D03*
X52620D02*
D03*
Y97429D02*
D03*
X65219D02*
D03*
Y91917D02*
D03*
X52620D02*
D03*
D26*
X82537Y90835D02*
D03*
Y93394D02*
D03*
Y95953D02*
D03*
X72301D02*
D03*
Y93394D02*
D03*
Y90835D02*
D03*
X82537Y98512D02*
D03*
X72301D02*
D03*
Y66512D02*
D03*
X82537D02*
D03*
X72301Y58835D02*
D03*
Y61394D02*
D03*
Y63953D02*
D03*
X82537D02*
D03*
Y61394D02*
D03*
Y58835D02*
D03*
D27*
X114396Y87173D02*
D03*
Y92173D02*
D03*
Y97173D02*
D03*
Y102173D02*
D03*
X92348Y87173D02*
D03*
Y92173D02*
D03*
Y97173D02*
D03*
Y102173D02*
D03*
X114396Y55173D02*
D03*
Y60173D02*
D03*
Y65173D02*
D03*
Y70173D02*
D03*
X92348Y55173D02*
D03*
Y60173D02*
D03*
Y65173D02*
D03*
Y70173D02*
D03*
D28*
X37801Y87913D02*
D03*
Y80433D02*
D03*
X48037Y84173D02*
D03*
X37801Y75413D02*
D03*
Y67933D02*
D03*
X48037Y71673D02*
D03*
D29*
X48228Y12992D02*
D03*
Y22441D02*
D03*
D30*
X220472Y58071D02*
X226378Y52165D01*
X217520Y66929D02*
X220472Y63976D01*
Y58071D02*
Y63976D01*
X208661Y66929D02*
X217520D01*
X188435Y107825D02*
X191732D01*
X186024Y110236D02*
X188435Y107825D01*
X117126Y128937D02*
X149606Y96457D01*
X182087D01*
X152559Y98425D02*
X183071D01*
X120079Y130905D02*
X152559Y98425D01*
X155512Y100394D02*
X184055D01*
X122047Y133858D02*
X155512Y100394D01*
X158465Y102362D02*
X185039D01*
X124016Y136811D02*
X158465Y102362D01*
X191732Y103544D02*
X205709Y89567D01*
X212598Y100394D02*
X212598Y100394D01*
Y79724D02*
Y100394D01*
X207677Y100394D02*
X208661Y99410D01*
X191732Y103544D02*
Y107825D01*
X205709Y83661D02*
Y89567D01*
X185039Y62992D02*
X205709Y83661D01*
X145669Y90551D02*
X178150D01*
X181102Y87598D01*
X144047Y92173D02*
X145669Y90551D01*
X180118Y92520D02*
X183071Y89567D01*
X146653Y92520D02*
X180118D01*
X142000Y97173D02*
X146653Y92520D01*
X182087Y96457D02*
X185039Y93504D01*
Y86614D02*
Y93504D01*
X183071Y98425D02*
X187008Y94488D01*
Y86614D02*
Y94488D01*
X188976Y86614D02*
Y95473D01*
X184055Y100394D02*
X188976Y95473D01*
X185039Y102362D02*
X190945Y96457D01*
Y86614D02*
Y96457D01*
X175197Y62992D02*
X185039D01*
X152362Y66732D02*
X152559Y66929D01*
X160531D01*
X164173Y78543D02*
X165354Y79724D01*
X161417Y78543D02*
X164173D01*
X165354Y79724D02*
Y79823D01*
X161516Y83661D02*
X165354Y79823D01*
Y79724D02*
X167323Y77756D01*
Y76673D02*
Y77756D01*
X167224Y83661D02*
X170276Y80610D01*
X178789Y68898D02*
X179602Y68085D01*
X175197Y68898D02*
X178789D01*
X175197Y70866D02*
X178150D01*
X179134Y71850D02*
Y73819D01*
X167421Y70866D02*
X175197D01*
X178150D02*
X179134Y71850D01*
X178150Y74803D02*
X179134Y73819D01*
X175197Y74803D02*
X178150D01*
X170276Y73819D02*
Y80610D01*
Y73819D02*
X171260Y72835D01*
X175197D01*
X114396Y97173D02*
X142000D01*
X114396Y92173D02*
X144047D01*
X181102Y86614D02*
Y87598D01*
X117126Y143701D02*
X124016Y136811D01*
X117126Y133858D02*
X120079Y130905D01*
X183071Y86614D02*
Y89567D01*
X117126Y138779D02*
X122047Y133858D01*
X167323Y70965D02*
X167421Y70866D01*
X166240Y66929D02*
X166240Y66929D01*
X175197D01*
X215709Y72835D02*
X226378Y62165D01*
X208661Y72835D02*
X215709D01*
X221457Y74803D02*
X224409Y71850D01*
X208661Y74803D02*
X221457D01*
X224409Y76772D02*
X224409Y76772D01*
X208661Y76772D02*
X224409D01*
X208661Y80709D02*
Y99410D01*
X211614Y78740D02*
X212598Y79724D01*
X208661Y78740D02*
X211614D01*
X162913Y38386D02*
X169803Y45276D01*
X181102D01*
X183071Y47244D01*
Y53150D01*
X172913Y38386D02*
X177835Y43307D01*
X182087D01*
X185039Y46260D01*
Y53150D01*
X197992Y43307D02*
X202913Y38386D01*
X193898Y43307D02*
X197992D01*
X190945Y46260D02*
X193898Y43307D01*
X190945Y46260D02*
Y53150D01*
X182913Y38386D02*
X187008Y42480D01*
Y53150D01*
X188976Y42323D02*
X192913Y38386D01*
X188976Y42323D02*
Y53150D01*
X202756D02*
X208661D01*
X185039Y60039D02*
X191929D01*
X194882Y57087D01*
Y53150D02*
Y57087D01*
X174213Y49213D02*
X178150Y53150D01*
X146520Y60173D02*
X157480Y49213D01*
X174213D01*
X114396Y60173D02*
X146520D01*
X147638Y62992D02*
X158455Y52175D01*
X120079Y62992D02*
X147638D01*
X117898Y65173D02*
X120079Y62992D01*
X114396Y65173D02*
X117898D01*
X173238Y52175D02*
X178150Y57087D01*
X158455Y52175D02*
X173238D01*
X178150Y57087D02*
X191929D01*
X192913Y56102D01*
Y53150D02*
Y56102D01*
X166339Y55709D02*
X169685Y59055D01*
X175197D01*
X166339Y61614D02*
X166929Y61024D01*
X175197D01*
X100394Y139764D02*
X111221Y128937D01*
X64961Y135827D02*
X68898Y139764D01*
X100394D01*
X103347Y141732D02*
X111221Y133858D01*
X62008Y135827D02*
X67913Y141732D01*
X103347D01*
X106299Y143701D02*
X111221Y138779D01*
X62008Y140945D02*
X64764Y143701D01*
X106299D01*
X64961Y128150D02*
Y135827D01*
X62008Y125197D02*
X64961Y128150D01*
X62008Y129921D02*
Y135827D01*
X56102Y125197D02*
Y129921D01*
Y140945D01*
Y145669D01*
X59055Y148622D01*
X110236D01*
X111221Y147638D01*
X109252Y145669D02*
X111221Y143701D01*
X62008Y145669D02*
X109252D01*
X82537Y90835D02*
X88534D01*
X89872Y92173D02*
X92348D01*
X88534Y90835D02*
X89872Y92173D01*
Y60173D02*
X92348D01*
X88534Y58835D02*
X89872Y60173D01*
X82537Y58835D02*
X88534D01*
X82537Y66512D02*
X88534D01*
X89872Y65173D02*
X92348D01*
X88534Y66512D02*
X89872Y65173D01*
X71419Y49673D02*
Y53028D01*
X71565Y53173D02*
Y58098D01*
X72301Y58835D01*
X71419Y53028D02*
X71565Y53173D01*
X71919Y81173D02*
X72065Y81319D01*
Y84673D01*
X72301Y84909D01*
Y90835D01*
X65719Y91917D02*
X67195Y93394D01*
X72301D01*
X65719Y97429D02*
X67195Y95953D01*
X72301D01*
X65719Y59917D02*
X67195Y61394D01*
X72301D01*
X65719Y65429D02*
X67195Y63953D01*
X72301D01*
X89872Y97173D02*
X92348D01*
X88534Y98512D02*
X89872Y97173D01*
X82537Y98512D02*
X88534D01*
X219291Y133661D02*
X217717Y132087D01*
X219291Y130513D01*
X56299Y69095D02*
X58136D01*
X57218D01*
Y74604D01*
X56299Y73686D01*
Y105182D02*
X57218Y106101D01*
X59054D01*
X59973Y105182D01*
Y101509D01*
X59054Y100591D01*
X57218D01*
X56299Y101509D01*
Y105182D01*
X48425Y145537D02*
X49343Y146455D01*
X51180D01*
X52099Y145537D01*
Y141863D01*
X51180Y140945D01*
X49343D01*
X48425Y141863D01*
Y145537D01*
Y125197D02*
X50262D01*
X49343D01*
Y130707D01*
X48425Y129788D01*
D66*
X40919Y101413D02*
X44419D01*
X37419D02*
X40919D01*
X40551Y107283D02*
X40919Y106915D01*
Y101413D02*
Y106915D01*
X187992Y120079D02*
X213583D01*
X175197D02*
X187992D01*
X186024Y118110D02*
X187992Y120079D01*
X186024Y116142D02*
Y118110D01*
X141732Y78740D02*
X148622D01*
X121063Y87598D02*
X121161D01*
X141503Y78740D02*
X141732D01*
X160433Y105315D02*
X175197Y120079D01*
X217779D02*
X218504Y120803D01*
X213583Y120079D02*
X217779D01*
X198819Y100394D02*
X201772D01*
X206732Y101339D02*
X207677Y100394D01*
X211732Y101260D02*
X212598Y100394D01*
X218504D02*
Y120803D01*
X220512Y122811D01*
X211732Y101260D02*
Y112205D01*
X191732Y127953D02*
Y134645D01*
X201732Y127953D02*
Y134802D01*
X191732Y134645D02*
X191929Y134843D01*
X201732Y134802D02*
X201772Y134843D01*
X206732Y101339D02*
Y112205D01*
X206693Y134843D02*
X206732Y134804D01*
Y127953D02*
Y134804D01*
X211732Y121930D02*
Y127953D01*
Y121930D02*
X213583Y120079D01*
X141732Y69882D02*
Y72933D01*
Y69882D02*
X144882Y66732D01*
X146850D01*
X157480Y71850D02*
Y78740D01*
X150591Y85630D02*
X157480Y78740D01*
X144685Y85630D02*
X150591D01*
X142717Y87598D02*
X144685Y85630D01*
X141732Y78740D02*
Y86614D01*
Y78642D02*
Y78740D01*
X148622D02*
X152362Y75000D01*
X141732Y86614D02*
X142717Y87598D01*
X157480Y71850D02*
X158268Y71063D01*
X161417D01*
X161516Y70965D01*
X167323D01*
X171260Y17520D02*
X173425Y19685D01*
X177992D01*
X205709Y48228D02*
X208661D01*
X214567D02*
Y53150D01*
X128839Y56004D02*
X128937Y56102D01*
X123031Y56004D02*
X128839D01*
X123031Y47244D02*
Y50295D01*
X122201Y55173D02*
X123031Y56004D01*
X114396Y55173D02*
X122201D01*
X202598Y31496D02*
X202763D01*
X202913Y38386D02*
X203071Y38228D01*
X182913Y31496D02*
X183071Y31654D01*
X182913Y38386D02*
X183071Y38228D01*
X192756Y31496D02*
X192920D01*
X182920Y19678D02*
X187828D01*
X173078Y25584D02*
X177985D01*
X182920D02*
X187828D01*
X197684Y19678D02*
X207513D01*
X183071Y31654D02*
Y38228D01*
X202763Y31496D02*
X203071Y31804D01*
X192913Y38386D02*
X193071Y38228D01*
X172913Y38386D02*
X173071Y38228D01*
X177999Y19678D02*
X182906D01*
X192920Y31496D02*
X193071Y31647D01*
X192763Y25584D02*
X197670D01*
X202605D02*
X207513D01*
X203071Y31804D02*
Y38228D01*
X193071Y31647D02*
Y38228D01*
X187842Y19678D02*
X197670D01*
X173071Y31647D02*
Y38228D01*
X160433Y55709D02*
X163386Y58661D01*
X163386D02*
X163386D01*
X160433Y61614D02*
X163386Y58661D01*
X75919Y86673D02*
X77919Y84673D01*
X121161Y87598D02*
X131890D01*
X142717D01*
X128937Y84646D02*
X131890Y87598D01*
X128937Y66929D02*
Y84646D01*
X120736Y87173D02*
X121063Y87500D01*
X114396Y87173D02*
X120736D01*
X121063Y87500D02*
X121161Y87598D01*
X121063Y78740D02*
Y80807D01*
X118803Y70173D02*
X119095Y69882D01*
X114396Y70173D02*
X118803D01*
X44776Y39673D02*
X48228Y36220D01*
X44419Y39673D02*
X44776D01*
X17500Y82028D02*
X35065D01*
X220512Y122811D02*
X224772D01*
X224969D01*
X226512Y90811D02*
Y93957D01*
X114396Y102173D02*
X118872D01*
X77274Y53173D02*
Y54319D01*
X75919Y55673D02*
Y63791D01*
Y55673D02*
X77274Y54319D01*
Y53173D02*
X79274Y55173D01*
X77360Y65232D02*
X77774Y65646D01*
Y84673D01*
X75919Y86673D02*
Y95291D01*
X77919Y84673D02*
X80419Y87173D01*
X44419Y93933D02*
X46159D01*
X48419Y91673D02*
X52376D01*
X46159Y93933D02*
X48419Y91673D01*
X41919Y83673D02*
Y91433D01*
X44419Y93933D01*
X37801Y80433D02*
X38679D01*
X41919Y83673D01*
X35065Y82028D02*
X36660Y80433D01*
X37801D01*
X35061Y70673D02*
X37801Y67933D01*
X34419Y70673D02*
X35061D01*
X37419Y62413D02*
X38159D01*
X41419Y65673D02*
X52175D01*
X38159Y62413D02*
X41419Y65673D01*
X35919Y66051D02*
X37801Y67933D01*
X35919Y63913D02*
Y66051D01*
Y63913D02*
X37419Y62413D01*
X43419Y68439D02*
Y71173D01*
X39179Y75413D02*
X43419Y71173D01*
X37801Y75413D02*
X39179D01*
X34159D02*
X37801D01*
X29986Y71240D02*
X34159Y75413D01*
X17919Y71240D02*
X29986D01*
X52419Y65429D02*
X52620D01*
X52175Y65673D02*
X52419Y65429D01*
X44419Y62413D02*
X49679D01*
X52175Y59917D02*
X52620D01*
X49679Y62413D02*
X52175Y59917D01*
X52376Y91673D02*
X52620Y91917D01*
X37419Y93933D02*
X40659Y97173D01*
X52364D02*
X52620Y97429D01*
X40659Y97173D02*
X52364D01*
X37419Y88295D02*
X37801Y87913D01*
X37419Y88295D02*
Y93933D01*
X28411Y87913D02*
X37801D01*
X27919Y87421D02*
X28411Y87913D01*
X44419Y39673D02*
Y42933D01*
Y50413D02*
Y54933D01*
X87372Y70173D02*
X92348D01*
X79274Y55173D02*
X92348D01*
X77360Y65232D02*
X78640Y63953D01*
X76081Y66512D02*
X77360Y65232D01*
X75919Y63791D02*
X77360Y65232D01*
X78919Y61173D02*
X79140Y61394D01*
X82537D01*
X72301Y66512D02*
X76081D01*
X78640Y63953D02*
X82537D01*
X80419Y87173D02*
X92348D01*
X77860Y97232D02*
X79140Y95953D01*
X76581Y98512D02*
X77860Y97232D01*
X75919Y95291D02*
X77860Y97232D01*
X72301Y98512D02*
X76581D01*
X79140Y95953D02*
X82537D01*
X78919Y93173D02*
X79140Y93394D01*
X82537D01*
X87872Y102173D02*
X92348D01*
X43419Y59173D02*
X44419Y60173D01*
Y62413D01*
X51919Y84173D02*
X52419Y83673D01*
X48037Y84173D02*
X51919D01*
X48037Y71673D02*
X52419D01*
X37419Y54933D02*
X44419D01*
D67*
X48031Y107283D02*
X51181D01*
X255906Y64961D02*
Y88583D01*
X232512Y99764D02*
X244724D01*
X255906Y88583D01*
X238512Y39370D02*
Y47567D01*
X255906Y64961D01*
X238512Y30835D02*
Y39370D01*
X238189D02*
X238512D01*
X234252Y35433D02*
X238189Y39370D01*
X215866Y35433D02*
X234252D01*
X212913Y38386D02*
X215866Y35433D01*
X171260Y10039D02*
X217717D01*
X238512Y30835D01*
X150787Y9843D02*
X150787Y9843D01*
X126457Y9843D02*
X150787D01*
X160236Y9843D02*
X160433Y10039D01*
X171260D01*
X73307Y12992D02*
X76457Y9843D01*
X48228Y12992D02*
X73307D01*
X237512Y106811D02*
X240772D01*
X232512Y89535D02*
Y93858D01*
Y89535D02*
X240354Y81693D01*
X226610Y99764D02*
X232512D01*
X224772Y101406D02*
Y105693D01*
X226512Y99665D02*
X226610Y99764D01*
X224772Y101406D02*
X226512Y99665D01*
X248252Y106811D02*
X252441D01*
X258858Y100394D01*
D68*
X224969Y116126D02*
Y122811D01*
X77274Y43809D02*
Y53173D01*
X48228Y28740D02*
X62205D01*
X77274Y43809D01*
X48228Y22441D02*
Y28740D01*
X228512Y119268D02*
X232055Y122811D01*
X228512Y110811D02*
Y119268D01*
Y105693D02*
Y110811D01*
X224772Y115929D02*
X224969Y116126D01*
X232252Y100024D02*
X232512Y99764D01*
X232252Y100024D02*
Y105693D01*
D69*
X230315Y71850D02*
X241339D01*
X244291Y76772D02*
X249213Y71850D01*
X230315Y76772D02*
X244291D01*
D70*
X193898Y140656D02*
Y146653D01*
X190899D01*
X189899Y145654D01*
Y141655D01*
X190899Y140656D01*
X193898D01*
X183901D02*
X187900D01*
Y143655D01*
X185900Y142655D01*
X184900D01*
X183901Y143655D01*
Y145654D01*
X184900Y146653D01*
X186900D01*
X187900Y145654D01*
X181902Y141655D02*
X180902Y140656D01*
X178902D01*
X177903Y141655D01*
Y145654D01*
X178902Y146653D01*
X180902D01*
X181902Y145654D01*
Y141655D01*
X175903D02*
X174904Y140656D01*
X172904D01*
X171905Y141655D01*
Y142655D01*
X172904Y143655D01*
X173904D01*
X172904D01*
X171905Y144654D01*
Y145654D01*
X172904Y146653D01*
X174904D01*
X175903Y145654D01*
X165907Y140656D02*
X169905D01*
Y143655D01*
X167906Y142655D01*
X166906D01*
X165907Y143655D01*
Y145654D01*
X166906Y146653D01*
X168906D01*
X169905Y145654D01*
X163907Y143655D02*
X159909D01*
X157909Y141655D02*
X156910Y140656D01*
X154910D01*
X153911Y141655D01*
Y145654D01*
X154910Y146653D01*
X156910D01*
X157909Y145654D01*
Y141655D01*
X147913Y140656D02*
X151911D01*
Y143655D01*
X149912Y142655D01*
X148912D01*
X147913Y143655D01*
Y145654D01*
X148912Y146653D01*
X150911D01*
X151911Y145654D01*
X145913Y143655D02*
X141914D01*
X139915Y141655D02*
X138915Y140656D01*
X136916D01*
X135916Y141655D01*
Y145654D01*
X136916Y146653D01*
X138915D01*
X139915Y145654D01*
Y141655D01*
X129918Y146653D02*
X133917D01*
X129918Y142655D01*
Y141655D01*
X130918Y140656D01*
X132917D01*
X133917Y141655D01*
D71*
X17500Y71378D02*
D03*
Y82165D02*
D03*
X27500Y76772D02*
D03*
Y87559D02*
D03*
Y65984D02*
D03*
Y55197D02*
D03*
X17500Y92953D02*
D03*
Y60590D02*
D03*
D72*
X27500Y98347D02*
D03*
D73*
X202913Y38386D02*
D03*
X162913D02*
D03*
X172913D02*
D03*
X182913D02*
D03*
X192913D02*
D03*
X212913D02*
D03*
D74*
X152913D02*
D03*
D75*
X226378Y62165D02*
D03*
Y52165D02*
D03*
D76*
Y42165D02*
D03*
D77*
X259842Y53150D02*
D03*
Y100394D02*
D03*
D78*
X249213Y71850D02*
D03*
Y81693D02*
D03*
X241339Y71850D02*
D03*
D79*
Y81693D02*
D03*
D80*
X96457Y9843D02*
D03*
X76457D02*
D03*
X116457D02*
D03*
D81*
X126457Y9843D02*
D03*
D82*
X160433Y105315D02*
D03*
X201772Y134843D02*
D03*
X191929D02*
D03*
X206693D02*
D03*
X198819Y100394D02*
D03*
X179602Y68085D02*
D03*
X185039Y60039D02*
D03*
X178150Y53150D02*
D03*
X128937Y56102D02*
D03*
Y66929D02*
D03*
X182913Y19685D02*
D03*
X141732Y69882D02*
D03*
X163386Y58661D02*
D03*
X205709Y48228D02*
D03*
X121063Y78740D02*
D03*
X119095Y69882D02*
D03*
X142717Y87598D02*
D03*
X226512Y90811D02*
D03*
X237512Y106811D02*
D03*
X228512Y110811D02*
D03*
X165354Y79724D02*
D03*
X123031Y47244D02*
D03*
X71419Y49673D02*
D03*
X111221Y147638D02*
D03*
X118872Y102173D02*
D03*
X34419Y70673D02*
D03*
X43419Y68439D02*
D03*
X87372Y70173D02*
D03*
X78919Y61173D02*
D03*
Y93173D02*
D03*
X71919Y81173D02*
D03*
X87872Y102173D02*
D03*
X43419Y59173D02*
D03*
X44419Y39673D02*
D03*
X52419Y71673D02*
D03*
Y83673D02*
D03*
X51181Y107283D02*
D03*
M02*
