M48
;Layer_Color=9474304
;FILE_FORMAT=2:5
INCH,LZ
;TYPE=PLATED
T1F00S00C0.01181
T2F00S00C0.03543
T3F00S00C0.03937
T4F00S00C0.09055
%
T01
X0044419Y0039673
X0043419Y0059173
Y0068439
X0034419Y0070673
X0051181Y0107283
X0052419Y0083673
Y0071673
X0071919Y0081173
X0078919Y0093173
X0087872Y0102173
X0118872
X0121063Y007874
X0119095Y0069882
X0128937Y0066929
Y0056102
X0123031Y0047244
X0141732Y0069882
X0142717Y0087598
X0165354Y0079724
X0163386Y0058661
X017815Y005315
X0185039Y0060039
X0179602Y0068085
X0205709Y0048228
X0182913Y0019685
X0198819Y0100394
X0201772Y0134843
X0206693
X0191929
X0160433Y0105315
X0111221Y0147638
X0087372Y0070173
X0078919Y0061173
X0071419Y0049673
X0226512Y0090811
X0228512Y0110811
X0237512Y0106811
T02
X00175Y006059
Y0071378
Y0082165
Y0092953
X00275Y0087559
Y0076772
Y0065984
Y0055197
Y0098347
X0152913Y0038386
X0162913
X0172913
X0182913
X0192913
X0202913
X0212913
X0226378Y0042165
Y0052165
Y0062165
X0241339Y007185
X0249213
Y0081693
X0241339
T03
X0076457Y0009843
X0096457
X0116457
X0126457Y0009843
T04
X0259842Y005315
Y0100394
M30
