G04*
G04 #@! TF.GenerationSoftware,Altium Limited,Altium Designer,23.2.1 (34)*
G04*
G04 Layer_Color=8388736*
%FSLAX25Y25*%
%MOIN*%
G70*
G04*
G04 #@! TF.SameCoordinates,F4FF07CF-D98B-406E-856D-297B6A820A95*
G04*
G04*
G04 #@! TF.FilePolarity,Negative*
G04*
G01*
G75*
%ADD30C,0.01181*%
%ADD31R,0.10827X0.76000*%
G04:AMPARAMS|DCode=32|XSize=53.21mil|YSize=31.56mil|CornerRadius=4.76mil|HoleSize=0mil|Usage=FLASHONLY|Rotation=0.000|XOffset=0mil|YOffset=0mil|HoleType=Round|Shape=RoundedRectangle|*
%AMROUNDEDRECTD32*
21,1,0.05321,0.02205,0,0,0.0*
21,1,0.04370,0.03156,0,0,0.0*
1,1,0.00951,0.02185,-0.01102*
1,1,0.00951,-0.02185,-0.01102*
1,1,0.00951,-0.02185,0.01102*
1,1,0.00951,0.02185,0.01102*
%
%ADD32ROUNDEDRECTD32*%
%ADD33R,0.03156X0.11030*%
G04:AMPARAMS|DCode=34|XSize=31.56mil|YSize=110.3mil|CornerRadius=6.13mil|HoleSize=0mil|Usage=FLASHONLY|Rotation=180.000|XOffset=0mil|YOffset=0mil|HoleType=Round|Shape=RoundedRectangle|*
%AMROUNDEDRECTD34*
21,1,0.03156,0.09803,0,0,180.0*
21,1,0.01929,0.11030,0,0,180.0*
1,1,0.01227,-0.00965,0.04902*
1,1,0.01227,0.00965,0.04902*
1,1,0.01227,0.00965,-0.04902*
1,1,0.01227,-0.00965,-0.04902*
%
%ADD34ROUNDEDRECTD34*%
G04:AMPARAMS|DCode=35|XSize=37.47mil|YSize=27.62mil|CornerRadius=4.36mil|HoleSize=0mil|Usage=FLASHONLY|Rotation=90.000|XOffset=0mil|YOffset=0mil|HoleType=Round|Shape=RoundedRectangle|*
%AMROUNDEDRECTD35*
21,1,0.03747,0.01890,0,0,90.0*
21,1,0.02874,0.02762,0,0,90.0*
1,1,0.00872,0.00945,0.01437*
1,1,0.00872,0.00945,-0.01437*
1,1,0.00872,-0.00945,-0.01437*
1,1,0.00872,-0.00945,0.01437*
%
%ADD35ROUNDEDRECTD35*%
G04:AMPARAMS|DCode=36|XSize=37.47mil|YSize=27.62mil|CornerRadius=4.36mil|HoleSize=0mil|Usage=FLASHONLY|Rotation=180.000|XOffset=0mil|YOffset=0mil|HoleType=Round|Shape=RoundedRectangle|*
%AMROUNDEDRECTD36*
21,1,0.03747,0.01890,0,0,180.0*
21,1,0.02874,0.02762,0,0,180.0*
1,1,0.00872,-0.01437,0.00945*
1,1,0.00872,0.01437,0.00945*
1,1,0.00872,0.01437,-0.00945*
1,1,0.00872,-0.01437,-0.00945*
%
%ADD36ROUNDEDRECTD36*%
G04:AMPARAMS|DCode=37|XSize=43.37mil|YSize=39.43mil|CornerRadius=5.54mil|HoleSize=0mil|Usage=FLASHONLY|Rotation=0.000|XOffset=0mil|YOffset=0mil|HoleType=Round|Shape=RoundedRectangle|*
%AMROUNDEDRECTD37*
21,1,0.04337,0.02835,0,0,0.0*
21,1,0.03228,0.03943,0,0,0.0*
1,1,0.01109,0.01614,-0.01417*
1,1,0.01109,-0.01614,-0.01417*
1,1,0.01109,-0.01614,0.01417*
1,1,0.01109,0.01614,0.01417*
%
%ADD37ROUNDEDRECTD37*%
G04:AMPARAMS|DCode=38|XSize=15.81mil|YSize=55.18mil|CornerRadius=3.77mil|HoleSize=0mil|Usage=FLASHONLY|Rotation=0.000|XOffset=0mil|YOffset=0mil|HoleType=Round|Shape=RoundedRectangle|*
%AMROUNDEDRECTD38*
21,1,0.01581,0.04764,0,0,0.0*
21,1,0.00827,0.05518,0,0,0.0*
1,1,0.00754,0.00413,-0.02382*
1,1,0.00754,-0.00413,-0.02382*
1,1,0.00754,-0.00413,0.02382*
1,1,0.00754,0.00413,0.02382*
%
%ADD38ROUNDEDRECTD38*%
G04:AMPARAMS|DCode=39|XSize=15.81mil|YSize=55.18mil|CornerRadius=3.77mil|HoleSize=0mil|Usage=FLASHONLY|Rotation=90.000|XOffset=0mil|YOffset=0mil|HoleType=Round|Shape=RoundedRectangle|*
%AMROUNDEDRECTD39*
21,1,0.01581,0.04764,0,0,90.0*
21,1,0.00827,0.05518,0,0,90.0*
1,1,0.00754,0.02382,0.00413*
1,1,0.00754,0.02382,-0.00413*
1,1,0.00754,-0.02382,-0.00413*
1,1,0.00754,-0.02382,0.00413*
%
%ADD39ROUNDEDRECTD39*%
G04:AMPARAMS|DCode=40|XSize=35.5mil|YSize=29.59mil|CornerRadius=8.4mil|HoleSize=0mil|Usage=FLASHONLY|Rotation=270.000|XOffset=0mil|YOffset=0mil|HoleType=Round|Shape=RoundedRectangle|*
%AMROUNDEDRECTD40*
21,1,0.03550,0.01280,0,0,270.0*
21,1,0.01870,0.02959,0,0,270.0*
1,1,0.01680,-0.00640,-0.00935*
1,1,0.01680,-0.00640,0.00935*
1,1,0.01680,0.00640,0.00935*
1,1,0.01680,0.00640,-0.00935*
%
%ADD40ROUNDEDRECTD40*%
G04:AMPARAMS|DCode=41|XSize=35.5mil|YSize=29.59mil|CornerRadius=8.4mil|HoleSize=0mil|Usage=FLASHONLY|Rotation=180.000|XOffset=0mil|YOffset=0mil|HoleType=Round|Shape=RoundedRectangle|*
%AMROUNDEDRECTD41*
21,1,0.03550,0.01280,0,0,180.0*
21,1,0.01870,0.02959,0,0,180.0*
1,1,0.01680,-0.00935,0.00640*
1,1,0.01680,0.00935,0.00640*
1,1,0.01680,0.00935,-0.00640*
1,1,0.01680,-0.00935,-0.00640*
%
%ADD41ROUNDEDRECTD41*%
G04:AMPARAMS|DCode=42|XSize=53.21mil|YSize=31.56mil|CornerRadius=4.76mil|HoleSize=0mil|Usage=FLASHONLY|Rotation=270.000|XOffset=0mil|YOffset=0mil|HoleType=Round|Shape=RoundedRectangle|*
%AMROUNDEDRECTD42*
21,1,0.05321,0.02205,0,0,270.0*
21,1,0.04370,0.03156,0,0,270.0*
1,1,0.00951,-0.01102,-0.02185*
1,1,0.00951,-0.01102,0.02185*
1,1,0.00951,0.01102,0.02185*
1,1,0.00951,0.01102,-0.02185*
%
%ADD42ROUNDEDRECTD42*%
G04:AMPARAMS|DCode=43|XSize=27.62mil|YSize=47.31mil|CornerRadius=4.36mil|HoleSize=0mil|Usage=FLASHONLY|Rotation=180.000|XOffset=0mil|YOffset=0mil|HoleType=Round|Shape=RoundedRectangle|*
%AMROUNDEDRECTD43*
21,1,0.02762,0.03858,0,0,180.0*
21,1,0.01890,0.04731,0,0,180.0*
1,1,0.00872,-0.00945,0.01929*
1,1,0.00872,0.00945,0.01929*
1,1,0.00872,0.00945,-0.01929*
1,1,0.00872,-0.00945,-0.01929*
%
%ADD43ROUNDEDRECTD43*%
G04:AMPARAMS|DCode=44|XSize=59.12mil|YSize=106.36mil|CornerRadius=10.27mil|HoleSize=0mil|Usage=FLASHONLY|Rotation=180.000|XOffset=0mil|YOffset=0mil|HoleType=Round|Shape=RoundedRectangle|*
%AMROUNDEDRECTD44*
21,1,0.05912,0.08583,0,0,180.0*
21,1,0.03858,0.10636,0,0,180.0*
1,1,0.02054,-0.01929,0.04291*
1,1,0.02054,0.01929,0.04291*
1,1,0.02054,0.01929,-0.04291*
1,1,0.02054,-0.01929,-0.04291*
%
%ADD44ROUNDEDRECTD44*%
G04:AMPARAMS|DCode=45|XSize=63.12mil|YSize=110.36mil|CornerRadius=12.27mil|HoleSize=0mil|Usage=FLASHONLY|Rotation=180.000|XOffset=0mil|YOffset=0mil|HoleType=Round|Shape=RoundedRectangle|*
%AMROUNDEDRECTD45*
21,1,0.06312,0.08583,0,0,180.0*
21,1,0.03858,0.11036,0,0,180.0*
1,1,0.02454,-0.01929,0.04291*
1,1,0.02454,0.01929,0.04291*
1,1,0.02454,0.01929,-0.04291*
1,1,0.02454,-0.01929,-0.04291*
%
%ADD45ROUNDEDRECTD45*%
%ADD46C,0.04337*%
%ADD47R,0.08661X0.08661*%
G04:AMPARAMS|DCode=48|XSize=47.31mil|YSize=35.5mil|CornerRadius=6.72mil|HoleSize=0mil|Usage=FLASHONLY|Rotation=0.000|XOffset=0mil|YOffset=0mil|HoleType=Round|Shape=RoundedRectangle|*
%AMROUNDEDRECTD48*
21,1,0.04731,0.02205,0,0,0.0*
21,1,0.03386,0.03550,0,0,0.0*
1,1,0.01345,0.01693,-0.01102*
1,1,0.01345,-0.01693,-0.01102*
1,1,0.01345,-0.01693,0.01102*
1,1,0.01345,0.01693,0.01102*
%
%ADD48ROUNDEDRECTD48*%
G04:AMPARAMS|DCode=49|XSize=21.32mil|YSize=43.37mil|CornerRadius=4.6mil|HoleSize=0mil|Usage=FLASHONLY|Rotation=270.000|XOffset=0mil|YOffset=0mil|HoleType=Round|Shape=RoundedRectangle|*
%AMROUNDEDRECTD49*
21,1,0.02132,0.03417,0,0,270.0*
21,1,0.01213,0.04337,0,0,270.0*
1,1,0.00920,-0.01709,-0.00606*
1,1,0.00920,-0.01709,0.00606*
1,1,0.00920,0.01709,0.00606*
1,1,0.00920,0.01709,-0.00606*
%
%ADD49ROUNDEDRECTD49*%
G04:AMPARAMS|DCode=50|XSize=27.62mil|YSize=55.18mil|CornerRadius=4.36mil|HoleSize=0mil|Usage=FLASHONLY|Rotation=270.000|XOffset=0mil|YOffset=0mil|HoleType=Round|Shape=RoundedRectangle|*
%AMROUNDEDRECTD50*
21,1,0.02762,0.04646,0,0,270.0*
21,1,0.01890,0.05518,0,0,270.0*
1,1,0.00872,-0.02323,-0.00945*
1,1,0.00872,-0.02323,0.00945*
1,1,0.00872,0.02323,0.00945*
1,1,0.00872,0.02323,-0.00945*
%
%ADD50ROUNDEDRECTD50*%
G04:AMPARAMS|DCode=51|XSize=27.62mil|YSize=47.31mil|CornerRadius=4.36mil|HoleSize=0mil|Usage=FLASHONLY|Rotation=90.000|XOffset=0mil|YOffset=0mil|HoleType=Round|Shape=RoundedRectangle|*
%AMROUNDEDRECTD51*
21,1,0.02762,0.03858,0,0,90.0*
21,1,0.01890,0.04731,0,0,90.0*
1,1,0.00872,0.01929,0.00945*
1,1,0.00872,0.01929,-0.00945*
1,1,0.00872,-0.01929,-0.00945*
1,1,0.00872,-0.01929,0.00945*
%
%ADD51ROUNDEDRECTD51*%
G04:AMPARAMS|DCode=52|XSize=63.12mil|YSize=110.36mil|CornerRadius=12.27mil|HoleSize=0mil|Usage=FLASHONLY|Rotation=90.000|XOffset=0mil|YOffset=0mil|HoleType=Round|Shape=RoundedRectangle|*
%AMROUNDEDRECTD52*
21,1,0.06312,0.08583,0,0,90.0*
21,1,0.03858,0.11036,0,0,90.0*
1,1,0.02454,0.04291,0.01929*
1,1,0.02454,0.04291,-0.01929*
1,1,0.02454,-0.04291,-0.01929*
1,1,0.02454,-0.04291,0.01929*
%
%ADD52ROUNDEDRECTD52*%
G04:AMPARAMS|DCode=53|XSize=59.12mil|YSize=106.36mil|CornerRadius=10.27mil|HoleSize=0mil|Usage=FLASHONLY|Rotation=90.000|XOffset=0mil|YOffset=0mil|HoleType=Round|Shape=RoundedRectangle|*
%AMROUNDEDRECTD53*
21,1,0.05912,0.08583,0,0,90.0*
21,1,0.03858,0.10636,0,0,90.0*
1,1,0.02054,0.04291,0.01929*
1,1,0.02054,0.04291,-0.01929*
1,1,0.02054,-0.04291,-0.01929*
1,1,0.02054,-0.04291,0.01929*
%
%ADD53ROUNDEDRECTD53*%
%ADD54C,0.07093*%
%ADD55R,0.07093X0.07093*%
%ADD56C,0.00400*%
G04:AMPARAMS|DCode=57|XSize=63.06mil|YSize=63.06mil|CornerRadius=0mil|HoleSize=0mil|Usage=FLASHONLY|Rotation=0.000|XOffset=0mil|YOffset=0mil|HoleType=Round|Shape=Octagon|*
%AMOCTAGOND57*
4,1,8,0.03153,-0.01576,0.03153,0.01576,0.01576,0.03153,-0.01576,0.03153,-0.03153,0.01576,-0.03153,-0.01576,-0.01576,-0.03153,0.01576,-0.03153,0.03153,-0.01576,0.0*
%
%ADD57OCTAGOND57*%

G04:AMPARAMS|DCode=58|XSize=63.06mil|YSize=63.06mil|CornerRadius=16.76mil|HoleSize=0mil|Usage=FLASHONLY|Rotation=0.000|XOffset=0mil|YOffset=0mil|HoleType=Round|Shape=RoundedRectangle|*
%AMROUNDEDRECTD58*
21,1,0.06306,0.02953,0,0,0.0*
21,1,0.02953,0.06306,0,0,0.0*
1,1,0.03353,0.01476,-0.01476*
1,1,0.03353,-0.01476,-0.01476*
1,1,0.03353,-0.01476,0.01476*
1,1,0.03353,0.01476,0.01476*
%
%ADD58ROUNDEDRECTD58*%
G04:AMPARAMS|DCode=59|XSize=63.06mil|YSize=63.06mil|CornerRadius=0mil|HoleSize=0mil|Usage=FLASHONLY|Rotation=90.000|XOffset=0mil|YOffset=0mil|HoleType=Round|Shape=Octagon|*
%AMOCTAGOND59*
4,1,8,0.01576,0.03153,-0.01576,0.03153,-0.03153,0.01576,-0.03153,-0.01576,-0.01576,-0.03153,0.01576,-0.03153,0.03153,-0.01576,0.03153,0.01576,0.01576,0.03153,0.0*
%
%ADD59OCTAGOND59*%

G04:AMPARAMS|DCode=60|XSize=63.06mil|YSize=63.06mil|CornerRadius=16.76mil|HoleSize=0mil|Usage=FLASHONLY|Rotation=90.000|XOffset=0mil|YOffset=0mil|HoleType=Round|Shape=RoundedRectangle|*
%AMROUNDEDRECTD60*
21,1,0.06306,0.02953,0,0,90.0*
21,1,0.02953,0.06306,0,0,90.0*
1,1,0.03353,0.01476,0.01476*
1,1,0.03353,0.01476,-0.01476*
1,1,0.03353,-0.01476,-0.01476*
1,1,0.03353,-0.01476,0.01476*
%
%ADD60ROUNDEDRECTD60*%
%ADD61C,0.13786*%
%ADD62C,0.05912*%
G04:AMPARAMS|DCode=63|XSize=59.12mil|YSize=59.12mil|CornerRadius=15.78mil|HoleSize=0mil|Usage=FLASHONLY|Rotation=90.000|XOffset=0mil|YOffset=0mil|HoleType=Round|Shape=RoundedRectangle|*
%AMROUNDEDRECTD63*
21,1,0.05912,0.02756,0,0,90.0*
21,1,0.02756,0.05912,0,0,90.0*
1,1,0.03156,0.01378,0.01378*
1,1,0.03156,0.01378,-0.01378*
1,1,0.03156,-0.01378,-0.01378*
1,1,0.03156,-0.01378,0.01378*
%
%ADD63ROUNDEDRECTD63*%
%ADD64C,0.06699*%
G04:AMPARAMS|DCode=65|XSize=66.99mil|YSize=66.99mil|CornerRadius=17.75mil|HoleSize=0mil|Usage=FLASHONLY|Rotation=0.000|XOffset=0mil|YOffset=0mil|HoleType=Round|Shape=RoundedRectangle|*
%AMROUNDEDRECTD65*
21,1,0.06699,0.03150,0,0,0.0*
21,1,0.03150,0.06699,0,0,0.0*
1,1,0.03550,0.01575,-0.01575*
1,1,0.03550,-0.01575,-0.01575*
1,1,0.03550,-0.01575,0.01575*
1,1,0.03550,0.01575,0.01575*
%
%ADD65ROUNDEDRECTD65*%
D30*
X219291Y133661D02*
X217717Y132087D01*
X219291Y130513D01*
X56299Y69095D02*
X58136D01*
X57218D01*
Y74604D01*
X56299Y73686D01*
Y105182D02*
X57218Y106101D01*
X59054D01*
X59973Y105182D01*
Y101509D01*
X59054Y100591D01*
X57218D01*
X56299Y101509D01*
Y105182D01*
X48425Y145537D02*
X49343Y146455D01*
X51180D01*
X52099Y145537D01*
Y141863D01*
X51180Y140945D01*
X49343D01*
X48425Y141863D01*
Y145537D01*
Y125197D02*
X50262D01*
X49343D01*
Y130707D01*
X48425Y129788D01*
D31*
X103839Y73220D02*
D03*
D32*
X171260Y17520D02*
D03*
Y10039D02*
D03*
X161417Y78543D02*
D03*
Y71063D02*
D03*
X48228Y28740D02*
D03*
Y36220D02*
D03*
X44419Y50413D02*
D03*
Y42933D02*
D03*
Y93933D02*
D03*
Y101413D02*
D03*
X37419D02*
D03*
Y93933D02*
D03*
X44419Y62413D02*
D03*
Y54933D02*
D03*
X37419D02*
D03*
Y62413D02*
D03*
D33*
X211732Y127953D02*
D03*
D34*
Y112205D02*
D03*
X206732Y127953D02*
D03*
Y112205D02*
D03*
X201732Y127953D02*
D03*
X196732D02*
D03*
X191732D02*
D03*
X201732Y112205D02*
D03*
X196732D02*
D03*
X191732D02*
D03*
D35*
X207677Y100394D02*
D03*
X201772D02*
D03*
X218504D02*
D03*
X212598D02*
D03*
X241559Y106811D02*
D03*
X247465D02*
D03*
X230315Y71850D02*
D03*
X224409D02*
D03*
X230315Y76772D02*
D03*
X224409D02*
D03*
X111221Y143701D02*
D03*
X117126D02*
D03*
Y138779D02*
D03*
X111221D02*
D03*
Y133858D02*
D03*
X117126D02*
D03*
Y128937D02*
D03*
X111221D02*
D03*
X208661Y48228D02*
D03*
X214567D02*
D03*
X160433Y55709D02*
D03*
X166339D02*
D03*
Y61614D02*
D03*
X160433D02*
D03*
X62008Y125197D02*
D03*
X56102D02*
D03*
X62008Y129921D02*
D03*
X56102D02*
D03*
X62008Y140945D02*
D03*
X56102D02*
D03*
X62008Y145669D02*
D03*
X56102D02*
D03*
X208661Y53150D02*
D03*
X214567D02*
D03*
D36*
X186024Y116142D02*
D03*
Y110236D02*
D03*
X187835Y19685D02*
D03*
Y25591D02*
D03*
X192756Y31496D02*
D03*
Y25591D02*
D03*
X197677Y25591D02*
D03*
Y19685D02*
D03*
X202598Y31496D02*
D03*
Y25591D02*
D03*
X207520Y19685D02*
D03*
Y25591D02*
D03*
X182913Y31496D02*
D03*
Y25591D02*
D03*
X173071Y31496D02*
D03*
Y25591D02*
D03*
X177992Y25591D02*
D03*
Y19685D02*
D03*
X232512Y93858D02*
D03*
Y99764D02*
D03*
D37*
X152362Y75000D02*
D03*
X146850D02*
D03*
Y66732D02*
D03*
X152362D02*
D03*
D38*
X181102Y86614D02*
D03*
X183071D02*
D03*
X185039D02*
D03*
X187008D02*
D03*
X188976D02*
D03*
X190945D02*
D03*
X192913D02*
D03*
X194882D02*
D03*
X196850D02*
D03*
X198819D02*
D03*
X200787D02*
D03*
X202756D02*
D03*
Y53150D02*
D03*
X200787D02*
D03*
X198819D02*
D03*
X196850D02*
D03*
X194882D02*
D03*
X192913D02*
D03*
X190945D02*
D03*
X188976D02*
D03*
X187008D02*
D03*
X185039D02*
D03*
X183071D02*
D03*
X181102D02*
D03*
D39*
X208661Y80709D02*
D03*
Y78740D02*
D03*
Y76772D02*
D03*
Y74803D02*
D03*
Y72835D02*
D03*
Y70866D02*
D03*
Y68898D02*
D03*
Y66929D02*
D03*
Y64961D02*
D03*
Y62992D02*
D03*
Y61024D02*
D03*
Y59055D02*
D03*
X175197D02*
D03*
Y61024D02*
D03*
Y62992D02*
D03*
Y64961D02*
D03*
Y66929D02*
D03*
Y68898D02*
D03*
Y70866D02*
D03*
Y72835D02*
D03*
Y74803D02*
D03*
Y76772D02*
D03*
Y78740D02*
D03*
Y80709D02*
D03*
D40*
X160531Y66929D02*
D03*
X166240D02*
D03*
X167224Y83661D02*
D03*
X161516D02*
D03*
X72065Y84673D02*
D03*
X77774D02*
D03*
X71565Y53173D02*
D03*
X77274D02*
D03*
D41*
X226512Y99665D02*
D03*
Y93957D02*
D03*
X141732Y72933D02*
D03*
Y78642D02*
D03*
X167323Y70965D02*
D03*
Y76673D02*
D03*
X121063Y87500D02*
D03*
Y81791D02*
D03*
X123031Y56004D02*
D03*
Y50295D02*
D03*
D42*
X224772Y122811D02*
D03*
X232252D02*
D03*
X48031Y107283D02*
D03*
X40551D02*
D03*
D43*
X224772Y115929D02*
D03*
X232252D02*
D03*
Y105693D02*
D03*
X228512D02*
D03*
X224772D02*
D03*
D44*
X150787Y9843D02*
D03*
D45*
X160236D02*
D03*
D46*
X232283Y7874D02*
D03*
X15748Y145669D02*
D03*
D47*
X232283Y7874D02*
D03*
X15748Y145669D02*
D03*
D48*
X52620Y65429D02*
D03*
X65219D02*
D03*
Y59917D02*
D03*
X52620D02*
D03*
Y97429D02*
D03*
X65219D02*
D03*
Y91917D02*
D03*
X52620D02*
D03*
D49*
X82537Y90835D02*
D03*
Y93394D02*
D03*
Y95953D02*
D03*
X72301D02*
D03*
Y93394D02*
D03*
Y90835D02*
D03*
X82537Y98512D02*
D03*
X72301D02*
D03*
Y66512D02*
D03*
X82537D02*
D03*
X72301Y58835D02*
D03*
Y61394D02*
D03*
Y63953D02*
D03*
X82537D02*
D03*
Y61394D02*
D03*
Y58835D02*
D03*
D50*
X114396Y87173D02*
D03*
Y92173D02*
D03*
Y97173D02*
D03*
Y102173D02*
D03*
X92348Y87173D02*
D03*
Y92173D02*
D03*
Y97173D02*
D03*
Y102173D02*
D03*
X114396Y55173D02*
D03*
Y60173D02*
D03*
Y65173D02*
D03*
Y70173D02*
D03*
X92348Y55173D02*
D03*
Y60173D02*
D03*
Y65173D02*
D03*
Y70173D02*
D03*
D51*
X37801Y87913D02*
D03*
Y80433D02*
D03*
X48037Y84173D02*
D03*
X37801Y75413D02*
D03*
Y67933D02*
D03*
X48037Y71673D02*
D03*
D52*
X48228Y12992D02*
D03*
D53*
Y22441D02*
D03*
D54*
X17500Y71378D02*
D03*
Y82165D02*
D03*
X27500Y76772D02*
D03*
Y87559D02*
D03*
Y65984D02*
D03*
Y55197D02*
D03*
X17500Y92953D02*
D03*
Y60590D02*
D03*
D55*
X27500Y98347D02*
D03*
D56*
X22500Y125984D02*
D03*
Y27559D02*
D03*
X255906Y15748D02*
D03*
Y137795D02*
D03*
D57*
X202913Y38386D02*
D03*
X162913D02*
D03*
X172913D02*
D03*
X182913D02*
D03*
X192913D02*
D03*
X212913D02*
D03*
D58*
X152913D02*
D03*
D59*
X226378Y62165D02*
D03*
Y52165D02*
D03*
D60*
Y42165D02*
D03*
D61*
X259842Y53150D02*
D03*
Y100394D02*
D03*
D62*
X249213Y71850D02*
D03*
Y81693D02*
D03*
X241339Y71850D02*
D03*
D63*
Y81693D02*
D03*
D64*
X96457Y9843D02*
D03*
X76457D02*
D03*
X116457D02*
D03*
D65*
X126457Y9843D02*
D03*
M02*
