G04*
G04 #@! TF.GenerationSoftware,Altium Limited,Altium Designer,20.1.12 (249)*
G04*
G04 Layer_Color=8388736*
%FSLAX25Y25*%
%MOIN*%
G70*
G04*
G04 #@! TF.SameCoordinates,324E50B1-46C9-4148-88D5-78795315F549*
G04*
G04*
G04 #@! TF.FilePolarity,Negative*
G04*
G01*
G75*
%ADD30R,0.10500X0.76000*%
G04:AMPARAMS|DCode=31|XSize=35.5mil|YSize=29.59mil|CornerRadius=8.4mil|HoleSize=0mil|Usage=FLASHONLY|Rotation=180.000|XOffset=0mil|YOffset=0mil|HoleType=Round|Shape=RoundedRectangle|*
%AMROUNDEDRECTD31*
21,1,0.03550,0.01280,0,0,180.0*
21,1,0.01870,0.02959,0,0,180.0*
1,1,0.01680,-0.00935,0.00640*
1,1,0.01680,0.00935,0.00640*
1,1,0.01680,0.00935,-0.00640*
1,1,0.01680,-0.00935,-0.00640*
%
%ADD31ROUNDEDRECTD31*%
G04:AMPARAMS|DCode=32|XSize=37.47mil|YSize=27.62mil|CornerRadius=4.36mil|HoleSize=0mil|Usage=FLASHONLY|Rotation=0.000|XOffset=0mil|YOffset=0mil|HoleType=Round|Shape=RoundedRectangle|*
%AMROUNDEDRECTD32*
21,1,0.03747,0.01890,0,0,0.0*
21,1,0.02874,0.02762,0,0,0.0*
1,1,0.00872,0.01437,-0.00945*
1,1,0.00872,-0.01437,-0.00945*
1,1,0.00872,-0.01437,0.00945*
1,1,0.00872,0.01437,0.00945*
%
%ADD32ROUNDEDRECTD32*%
G04:AMPARAMS|DCode=33|XSize=37.47mil|YSize=27.62mil|CornerRadius=4.36mil|HoleSize=0mil|Usage=FLASHONLY|Rotation=90.000|XOffset=0mil|YOffset=0mil|HoleType=Round|Shape=RoundedRectangle|*
%AMROUNDEDRECTD33*
21,1,0.03747,0.01890,0,0,90.0*
21,1,0.02874,0.02762,0,0,90.0*
1,1,0.00872,0.00945,0.01437*
1,1,0.00872,0.00945,-0.01437*
1,1,0.00872,-0.00945,-0.01437*
1,1,0.00872,-0.00945,0.01437*
%
%ADD33ROUNDEDRECTD33*%
G04:AMPARAMS|DCode=34|XSize=35.5mil|YSize=29.59mil|CornerRadius=8.4mil|HoleSize=0mil|Usage=FLASHONLY|Rotation=90.000|XOffset=0mil|YOffset=0mil|HoleType=Round|Shape=RoundedRectangle|*
%AMROUNDEDRECTD34*
21,1,0.03550,0.01280,0,0,90.0*
21,1,0.01870,0.02959,0,0,90.0*
1,1,0.01680,0.00640,0.00935*
1,1,0.01680,0.00640,-0.00935*
1,1,0.01680,-0.00640,-0.00935*
1,1,0.01680,-0.00640,0.00935*
%
%ADD34ROUNDEDRECTD34*%
G04:AMPARAMS|DCode=35|XSize=53.21mil|YSize=31.56mil|CornerRadius=4.76mil|HoleSize=0mil|Usage=FLASHONLY|Rotation=270.000|XOffset=0mil|YOffset=0mil|HoleType=Round|Shape=RoundedRectangle|*
%AMROUNDEDRECTD35*
21,1,0.05321,0.02205,0,0,270.0*
21,1,0.04370,0.03156,0,0,270.0*
1,1,0.00951,-0.01102,-0.02185*
1,1,0.00951,-0.01102,0.02185*
1,1,0.00951,0.01102,0.02185*
1,1,0.00951,0.01102,-0.02185*
%
%ADD35ROUNDEDRECTD35*%
G04:AMPARAMS|DCode=36|XSize=15.81mil|YSize=63.06mil|CornerRadius=4.95mil|HoleSize=0mil|Usage=FLASHONLY|Rotation=0.000|XOffset=0mil|YOffset=0mil|HoleType=Round|Shape=RoundedRectangle|*
%AMROUNDEDRECTD36*
21,1,0.01581,0.05315,0,0,0.0*
21,1,0.00591,0.06306,0,0,0.0*
1,1,0.00991,0.00295,-0.02657*
1,1,0.00991,-0.00295,-0.02657*
1,1,0.00991,-0.00295,0.02657*
1,1,0.00991,0.00295,0.02657*
%
%ADD36ROUNDEDRECTD36*%
G04:AMPARAMS|DCode=37|XSize=110.3mil|YSize=70.93mil|CornerRadius=8.69mil|HoleSize=0mil|Usage=FLASHONLY|Rotation=270.000|XOffset=0mil|YOffset=0mil|HoleType=Round|Shape=RoundedRectangle|*
%AMROUNDEDRECTD37*
21,1,0.11030,0.05354,0,0,270.0*
21,1,0.09291,0.07093,0,0,270.0*
1,1,0.01739,-0.02677,-0.04646*
1,1,0.01739,-0.02677,0.04646*
1,1,0.01739,0.02677,0.04646*
1,1,0.01739,0.02677,-0.04646*
%
%ADD37ROUNDEDRECTD37*%
G04:AMPARAMS|DCode=38|XSize=47.31mil|YSize=35.5mil|CornerRadius=6.72mil|HoleSize=0mil|Usage=FLASHONLY|Rotation=0.000|XOffset=0mil|YOffset=0mil|HoleType=Round|Shape=RoundedRectangle|*
%AMROUNDEDRECTD38*
21,1,0.04731,0.02205,0,0,0.0*
21,1,0.03386,0.03550,0,0,0.0*
1,1,0.01345,0.01693,-0.01102*
1,1,0.01345,-0.01693,-0.01102*
1,1,0.01345,-0.01693,0.01102*
1,1,0.01345,0.01693,0.01102*
%
%ADD38ROUNDEDRECTD38*%
G04:AMPARAMS|DCode=39|XSize=27.62mil|YSize=47.31mil|CornerRadius=4.36mil|HoleSize=0mil|Usage=FLASHONLY|Rotation=180.000|XOffset=0mil|YOffset=0mil|HoleType=Round|Shape=RoundedRectangle|*
%AMROUNDEDRECTD39*
21,1,0.02762,0.03858,0,0,180.0*
21,1,0.01890,0.04731,0,0,180.0*
1,1,0.00872,-0.00945,0.01929*
1,1,0.00872,0.00945,0.01929*
1,1,0.00872,0.00945,-0.01929*
1,1,0.00872,-0.00945,-0.01929*
%
%ADD39ROUNDEDRECTD39*%
G04:AMPARAMS|DCode=40|XSize=47.31mil|YSize=27.62mil|CornerRadius=5.54mil|HoleSize=0mil|Usage=FLASHONLY|Rotation=180.000|XOffset=0mil|YOffset=0mil|HoleType=Round|Shape=RoundedRectangle|*
%AMROUNDEDRECTD40*
21,1,0.04731,0.01654,0,0,180.0*
21,1,0.03622,0.02762,0,0,180.0*
1,1,0.01109,-0.01811,0.00827*
1,1,0.01109,0.01811,0.00827*
1,1,0.01109,0.01811,-0.00827*
1,1,0.01109,-0.01811,-0.00827*
%
%ADD40ROUNDEDRECTD40*%
G04:AMPARAMS|DCode=41|XSize=53.21mil|YSize=31.56mil|CornerRadius=4.76mil|HoleSize=0mil|Usage=FLASHONLY|Rotation=180.000|XOffset=0mil|YOffset=0mil|HoleType=Round|Shape=RoundedRectangle|*
%AMROUNDEDRECTD41*
21,1,0.05321,0.02205,0,0,180.0*
21,1,0.04370,0.03156,0,0,180.0*
1,1,0.00951,-0.02185,0.01102*
1,1,0.00951,0.02185,0.01102*
1,1,0.00951,0.02185,-0.01102*
1,1,0.00951,-0.02185,-0.01102*
%
%ADD41ROUNDEDRECTD41*%
G04:AMPARAMS|DCode=42|XSize=21.32mil|YSize=43.37mil|CornerRadius=4.6mil|HoleSize=0mil|Usage=FLASHONLY|Rotation=270.000|XOffset=0mil|YOffset=0mil|HoleType=Round|Shape=RoundedRectangle|*
%AMROUNDEDRECTD42*
21,1,0.02132,0.03417,0,0,270.0*
21,1,0.01213,0.04337,0,0,270.0*
1,1,0.00920,-0.01709,-0.00606*
1,1,0.00920,-0.01709,0.00606*
1,1,0.00920,0.01709,0.00606*
1,1,0.00920,0.01709,-0.00606*
%
%ADD42ROUNDEDRECTD42*%
G04:AMPARAMS|DCode=43|XSize=27.62mil|YSize=55.18mil|CornerRadius=4.36mil|HoleSize=0mil|Usage=FLASHONLY|Rotation=270.000|XOffset=0mil|YOffset=0mil|HoleType=Round|Shape=RoundedRectangle|*
%AMROUNDEDRECTD43*
21,1,0.02762,0.04646,0,0,270.0*
21,1,0.01890,0.05518,0,0,270.0*
1,1,0.00872,-0.02323,-0.00945*
1,1,0.00872,-0.02323,0.00945*
1,1,0.00872,0.02323,0.00945*
1,1,0.00872,0.02323,-0.00945*
%
%ADD43ROUNDEDRECTD43*%
G04:AMPARAMS|DCode=44|XSize=27.62mil|YSize=47.31mil|CornerRadius=4.36mil|HoleSize=0mil|Usage=FLASHONLY|Rotation=90.000|XOffset=0mil|YOffset=0mil|HoleType=Round|Shape=RoundedRectangle|*
%AMROUNDEDRECTD44*
21,1,0.02762,0.03858,0,0,90.0*
21,1,0.01890,0.04731,0,0,90.0*
1,1,0.00872,0.01929,0.00945*
1,1,0.00872,0.01929,-0.00945*
1,1,0.00872,-0.01929,-0.00945*
1,1,0.00872,-0.01929,0.00945*
%
%ADD44ROUNDEDRECTD44*%
G04:AMPARAMS|DCode=45|XSize=63.12mil|YSize=110.36mil|CornerRadius=12.27mil|HoleSize=0mil|Usage=FLASHONLY|Rotation=180.000|XOffset=0mil|YOffset=0mil|HoleType=Round|Shape=RoundedRectangle|*
%AMROUNDEDRECTD45*
21,1,0.06312,0.08583,0,0,180.0*
21,1,0.03858,0.11036,0,0,180.0*
1,1,0.02454,-0.01929,0.04291*
1,1,0.02454,0.01929,0.04291*
1,1,0.02454,0.01929,-0.04291*
1,1,0.02454,-0.01929,-0.04291*
%
%ADD45ROUNDEDRECTD45*%
G04:AMPARAMS|DCode=46|XSize=59.12mil|YSize=106.36mil|CornerRadius=10.27mil|HoleSize=0mil|Usage=FLASHONLY|Rotation=180.000|XOffset=0mil|YOffset=0mil|HoleType=Round|Shape=RoundedRectangle|*
%AMROUNDEDRECTD46*
21,1,0.05912,0.08583,0,0,180.0*
21,1,0.03858,0.10636,0,0,180.0*
1,1,0.02054,-0.01929,0.04291*
1,1,0.02054,0.01929,0.04291*
1,1,0.02054,0.01929,-0.04291*
1,1,0.02054,-0.01929,-0.04291*
%
%ADD46ROUNDEDRECTD46*%
%ADD47R,0.11030X0.03156*%
G04:AMPARAMS|DCode=48|XSize=31.56mil|YSize=110.3mil|CornerRadius=6.13mil|HoleSize=0mil|Usage=FLASHONLY|Rotation=270.000|XOffset=0mil|YOffset=0mil|HoleType=Round|Shape=RoundedRectangle|*
%AMROUNDEDRECTD48*
21,1,0.03156,0.09803,0,0,270.0*
21,1,0.01929,0.11030,0,0,270.0*
1,1,0.01227,-0.04902,-0.00965*
1,1,0.01227,-0.04902,0.00965*
1,1,0.01227,0.04902,0.00965*
1,1,0.01227,0.04902,-0.00965*
%
%ADD48ROUNDEDRECTD48*%
G04:AMPARAMS|DCode=49|XSize=53.21mil|YSize=35.5mil|CornerRadius=5.15mil|HoleSize=0mil|Usage=FLASHONLY|Rotation=0.000|XOffset=0mil|YOffset=0mil|HoleType=Round|Shape=RoundedRectangle|*
%AMROUNDEDRECTD49*
21,1,0.05321,0.02520,0,0,0.0*
21,1,0.04291,0.03550,0,0,0.0*
1,1,0.01030,0.02146,-0.01260*
1,1,0.01030,-0.02146,-0.01260*
1,1,0.01030,-0.02146,0.01260*
1,1,0.01030,0.02146,0.01260*
%
%ADD49ROUNDEDRECTD49*%
G04:AMPARAMS|DCode=50|XSize=53.21mil|YSize=35.5mil|CornerRadius=5.15mil|HoleSize=0mil|Usage=FLASHONLY|Rotation=90.000|XOffset=0mil|YOffset=0mil|HoleType=Round|Shape=RoundedRectangle|*
%AMROUNDEDRECTD50*
21,1,0.05321,0.02520,0,0,90.0*
21,1,0.04291,0.03550,0,0,90.0*
1,1,0.01030,0.01260,0.02146*
1,1,0.01030,0.01260,-0.02146*
1,1,0.01030,-0.01260,-0.02146*
1,1,0.01030,-0.01260,0.02146*
%
%ADD50ROUNDEDRECTD50*%
G04:AMPARAMS|DCode=51|XSize=15.81mil|YSize=63.06mil|CornerRadius=4.95mil|HoleSize=0mil|Usage=FLASHONLY|Rotation=90.000|XOffset=0mil|YOffset=0mil|HoleType=Round|Shape=RoundedRectangle|*
%AMROUNDEDRECTD51*
21,1,0.01581,0.05315,0,0,90.0*
21,1,0.00591,0.06306,0,0,90.0*
1,1,0.00991,0.02657,0.00295*
1,1,0.00991,0.02657,-0.00295*
1,1,0.00991,-0.02657,-0.00295*
1,1,0.00991,-0.02657,0.00295*
%
%ADD51ROUNDEDRECTD51*%
G04:AMPARAMS|DCode=52|XSize=63.06mil|YSize=63.06mil|CornerRadius=16.76mil|HoleSize=0mil|Usage=FLASHONLY|Rotation=0.000|XOffset=0mil|YOffset=0mil|HoleType=Round|Shape=RoundedRectangle|*
%AMROUNDEDRECTD52*
21,1,0.06306,0.02953,0,0,0.0*
21,1,0.02953,0.06306,0,0,0.0*
1,1,0.03353,0.01476,-0.01476*
1,1,0.03353,-0.01476,-0.01476*
1,1,0.03353,-0.01476,0.01476*
1,1,0.03353,0.01476,0.01476*
%
%ADD52ROUNDEDRECTD52*%
%ADD53P,0.06825X8X22.5*%
%ADD54C,0.13786*%
%ADD55C,0.05912*%
G04:AMPARAMS|DCode=56|XSize=59.12mil|YSize=59.12mil|CornerRadius=15.78mil|HoleSize=0mil|Usage=FLASHONLY|Rotation=90.000|XOffset=0mil|YOffset=0mil|HoleType=Round|Shape=RoundedRectangle|*
%AMROUNDEDRECTD56*
21,1,0.05912,0.02756,0,0,90.0*
21,1,0.02756,0.05912,0,0,90.0*
1,1,0.03156,0.01378,0.01378*
1,1,0.03156,0.01378,-0.01378*
1,1,0.03156,-0.01378,-0.01378*
1,1,0.03156,-0.01378,0.01378*
%
%ADD56ROUNDEDRECTD56*%
%ADD57R,0.07093X0.07093*%
%ADD58C,0.07093*%
%ADD59C,0.00400*%
%ADD60C,0.06699*%
G04:AMPARAMS|DCode=61|XSize=66.99mil|YSize=66.99mil|CornerRadius=17.75mil|HoleSize=0mil|Usage=FLASHONLY|Rotation=0.000|XOffset=0mil|YOffset=0mil|HoleType=Round|Shape=RoundedRectangle|*
%AMROUNDEDRECTD61*
21,1,0.06699,0.03150,0,0,0.0*
21,1,0.03150,0.06699,0,0,0.0*
1,1,0.03550,0.01575,-0.01575*
1,1,0.03550,-0.01575,-0.01575*
1,1,0.03550,-0.01575,0.01575*
1,1,0.03550,0.01575,0.01575*
%
%ADD61ROUNDEDRECTD61*%
D30*
X97750Y62000D02*
D03*
D31*
X174500Y31354D02*
D03*
Y25646D02*
D03*
X169500Y31354D02*
D03*
Y25646D02*
D03*
X196000Y87854D02*
D03*
Y82146D02*
D03*
X180000Y70146D02*
D03*
Y75854D02*
D03*
X179500Y41354D02*
D03*
Y35646D02*
D03*
X168000Y84854D02*
D03*
Y79146D02*
D03*
X152000Y83146D02*
D03*
Y88854D02*
D03*
D32*
X119000Y71547D02*
D03*
Y77453D02*
D03*
Y61047D02*
D03*
Y66953D02*
D03*
X200000Y44953D02*
D03*
Y39047D02*
D03*
X195000Y44953D02*
D03*
Y39047D02*
D03*
X190000Y44953D02*
D03*
Y39047D02*
D03*
X185000Y44953D02*
D03*
Y39047D02*
D03*
X200000Y33953D02*
D03*
Y28047D02*
D03*
X195000Y33953D02*
D03*
Y28047D02*
D03*
X190000Y33953D02*
D03*
Y28047D02*
D03*
X185000Y33953D02*
D03*
Y28047D02*
D03*
X202000Y87953D02*
D03*
Y82047D02*
D03*
D33*
X122953Y103500D02*
D03*
X117047D02*
D03*
X122953Y109000D02*
D03*
X117047D02*
D03*
X122953Y114500D02*
D03*
X117047D02*
D03*
X122953Y120000D02*
D03*
X117047D02*
D03*
D34*
X76854Y41500D02*
D03*
X71146D02*
D03*
X109646Y37500D02*
D03*
X115354D02*
D03*
X77354Y73000D02*
D03*
X71646D02*
D03*
X107646Y69000D02*
D03*
X113354D02*
D03*
X150146Y24500D02*
D03*
X155854D02*
D03*
X127354Y35000D02*
D03*
X121646D02*
D03*
D35*
X194260Y111000D02*
D03*
X201740D02*
D03*
X69260Y32000D02*
D03*
X76740D02*
D03*
X165760Y97500D02*
D03*
X173240D02*
D03*
X165760Y112500D02*
D03*
X173240D02*
D03*
X217740Y95000D02*
D03*
X210260D02*
D03*
D36*
X162795Y31559D02*
D03*
X164764D02*
D03*
X141142D02*
D03*
X135236D02*
D03*
X137205D02*
D03*
X139173D02*
D03*
X147047D02*
D03*
X143110D02*
D03*
X145079D02*
D03*
X149016D02*
D03*
X150984D02*
D03*
X152953D02*
D03*
X154921D02*
D03*
X156890D02*
D03*
X158858D02*
D03*
X160827D02*
D03*
X164764Y76441D02*
D03*
X162795D02*
D03*
X160827D02*
D03*
X158858D02*
D03*
X156890D02*
D03*
X154921D02*
D03*
X152953D02*
D03*
X150984D02*
D03*
X149016D02*
D03*
X147047D02*
D03*
X145079D02*
D03*
X143110D02*
D03*
X141142D02*
D03*
X139173D02*
D03*
X137205D02*
D03*
X135236D02*
D03*
D37*
X167669Y17000D02*
D03*
X176331D02*
D03*
D38*
X52201Y53756D02*
D03*
X64799D02*
D03*
Y48244D02*
D03*
X52201D02*
D03*
Y85756D02*
D03*
X64799D02*
D03*
Y80244D02*
D03*
X52201D02*
D03*
D39*
X196760Y68618D02*
D03*
X204240D02*
D03*
Y58382D02*
D03*
X200500D02*
D03*
X196760D02*
D03*
X194260Y93882D02*
D03*
X198000D02*
D03*
X201740D02*
D03*
Y104118D02*
D03*
X194260D02*
D03*
D40*
X180488Y64969D02*
D03*
X191512D02*
D03*
Y61032D02*
D03*
X180488D02*
D03*
D41*
X37000Y43260D02*
D03*
Y50740D02*
D03*
X44000Y43260D02*
D03*
Y50740D02*
D03*
Y38740D02*
D03*
Y31260D02*
D03*
X37000Y89740D02*
D03*
Y82260D02*
D03*
X44000Y89740D02*
D03*
Y82260D02*
D03*
X139016Y5657D02*
D03*
Y13137D02*
D03*
D42*
X82118Y79161D02*
D03*
Y81721D02*
D03*
Y84280D02*
D03*
X71882D02*
D03*
Y81721D02*
D03*
Y79161D02*
D03*
X82118Y86839D02*
D03*
X71882D02*
D03*
Y54839D02*
D03*
X82118D02*
D03*
X71882Y47161D02*
D03*
Y49720D02*
D03*
Y52280D02*
D03*
X82118D02*
D03*
Y49720D02*
D03*
Y47161D02*
D03*
D43*
X111024Y75500D02*
D03*
Y80500D02*
D03*
Y85500D02*
D03*
Y90500D02*
D03*
X88976Y75500D02*
D03*
Y80500D02*
D03*
Y85500D02*
D03*
Y90500D02*
D03*
X111024Y43500D02*
D03*
Y48500D02*
D03*
Y53500D02*
D03*
Y58500D02*
D03*
X88976Y43500D02*
D03*
Y48500D02*
D03*
Y53500D02*
D03*
Y58500D02*
D03*
D44*
X37382Y76240D02*
D03*
Y68760D02*
D03*
X47618Y72500D02*
D03*
X37382Y63740D02*
D03*
Y56260D02*
D03*
X47618Y60000D02*
D03*
D45*
X130724Y9500D02*
D03*
X53276Y35000D02*
D03*
D46*
X121276Y9500D02*
D03*
X62724Y35000D02*
D03*
D47*
X140126Y117460D02*
D03*
D48*
X155874D02*
D03*
X140126Y112460D02*
D03*
X155874D02*
D03*
X140126Y107460D02*
D03*
Y102460D02*
D03*
Y97460D02*
D03*
X155874Y107460D02*
D03*
Y102460D02*
D03*
Y97460D02*
D03*
D49*
X44000Y102543D02*
D03*
Y95457D02*
D03*
X173500Y77457D02*
D03*
Y84543D02*
D03*
D50*
X120457Y29500D02*
D03*
X127543D02*
D03*
X159543Y19000D02*
D03*
X152457D02*
D03*
D51*
X172441Y58921D02*
D03*
Y60890D02*
D03*
Y62858D02*
D03*
Y64827D02*
D03*
X127559Y68764D02*
D03*
Y66795D02*
D03*
Y64827D02*
D03*
Y62858D02*
D03*
Y60890D02*
D03*
Y58921D02*
D03*
Y56953D02*
D03*
Y54984D02*
D03*
Y53016D02*
D03*
Y51047D02*
D03*
Y49079D02*
D03*
Y47110D02*
D03*
Y45142D02*
D03*
Y43173D02*
D03*
Y41205D02*
D03*
Y39236D02*
D03*
X172441D02*
D03*
Y41205D02*
D03*
Y43173D02*
D03*
Y45142D02*
D03*
Y47110D02*
D03*
Y49079D02*
D03*
Y51047D02*
D03*
Y53016D02*
D03*
Y54984D02*
D03*
Y56953D02*
D03*
Y66795D02*
D03*
Y68764D02*
D03*
D52*
X122000Y21000D02*
D03*
X108000Y120000D02*
D03*
D53*
X132000Y21000D02*
D03*
X142000D02*
D03*
X98000Y120000D02*
D03*
X88000D02*
D03*
X78000D02*
D03*
X68000D02*
D03*
D54*
X228346Y41339D02*
D03*
Y88583D02*
D03*
D55*
X217717Y60039D02*
D03*
Y69882D02*
D03*
X209842Y60039D02*
D03*
D56*
Y69882D02*
D03*
D57*
X27500Y86535D02*
D03*
D58*
Y75748D02*
D03*
Y64961D02*
D03*
Y54173D02*
D03*
Y43386D02*
D03*
X17500Y81142D02*
D03*
Y70354D02*
D03*
Y59567D02*
D03*
Y48779D02*
D03*
D59*
X22500Y114173D02*
D03*
Y15748D02*
D03*
X224410D02*
D03*
Y114173D02*
D03*
D60*
X78000Y8000D02*
D03*
X58000D02*
D03*
X98000D02*
D03*
D61*
X108000Y8000D02*
D03*
M02*
