M48
;Layer_Color=9474304
;FILE_FORMAT=2:5
INCH,LZ
;TYPE=PLATED
T1F00S00C0.01181
T2F00S00C0.03543
T3F00S00C0.03937
T4F00S00C0.04724
%
T01
X0071Y0038
X00825Y0033
X00785Y00495
X0084Y00585
X00715Y00695
X00785Y00815
X00845Y00905
X01155
X0113Y0063
X01285Y00435
X01085Y00145
X0179Y00205
X0197Y00265
X02055Y0043
X01085Y01245
X00445Y01025
X0052Y0072
Y006
X0043Y0056765
Y00475
X0034Y0059
X0044Y0028
T02
X0134Y0016
X0144
X0154
X00275Y0043386
Y0054173
Y0064961
Y0075748
Y0086535
X00175Y0081142
Y0070354
Y0059567
Y0048779
T03
X0058Y0008
X0078
X0098
X0108Y0008
X0214Y0035
X0224
X0234
Y0095
X0224
X0214
X0204
X0194
X0184
X0174
X0164
X0154
X0144
X0134
X0124
X0119Y007525
Y0065
X01365
Y007525
X0134Y0035
X0144
X0154
X0164
X0174
X0184
X0194
X0204
X0124
T04
X01595Y011
X01695
X01795
X01895
X01995
Y01225
X01895
X01795
X01695
X01595
M30
