G04*
G04 #@! TF.GenerationSoftware,Altium Limited,Altium Designer,21.9.1 (22)*
G04*
G04 Layer_Physical_Order=2*
G04 Layer_Color=16711680*
%FSLAX25Y25*%
%MOIN*%
G70*
G04*
G04 #@! TF.SameCoordinates,20B19F73-AE42-437D-8B96-58F391311DC6*
G04*
G04*
G04 #@! TF.FilePolarity,Positive*
G04*
G01*
G75*
%ADD62C,0.01575*%
%ADD63C,0.01181*%
G04:AMPARAMS|DCode=68|XSize=59.06mil|YSize=59.06mil|CornerRadius=14.76mil|HoleSize=0mil|Usage=FLASHONLY|Rotation=0.000|XOffset=0mil|YOffset=0mil|HoleType=Round|Shape=RoundedRectangle|*
%AMROUNDEDRECTD68*
21,1,0.05906,0.02953,0,0,0.0*
21,1,0.02953,0.05906,0,0,0.0*
1,1,0.02953,0.01476,-0.01476*
1,1,0.02953,-0.01476,-0.01476*
1,1,0.02953,-0.01476,0.01476*
1,1,0.02953,0.01476,0.01476*
%
%ADD68ROUNDEDRECTD68*%
%ADD69P,0.06392X8X22.5*%
%ADD70C,0.13386*%
%ADD71C,0.05512*%
G04:AMPARAMS|DCode=72|XSize=55.12mil|YSize=55.12mil|CornerRadius=13.78mil|HoleSize=0mil|Usage=FLASHONLY|Rotation=90.000|XOffset=0mil|YOffset=0mil|HoleType=Round|Shape=RoundedRectangle|*
%AMROUNDEDRECTD72*
21,1,0.05512,0.02756,0,0,90.0*
21,1,0.02756,0.05512,0,0,90.0*
1,1,0.02756,0.01378,0.01378*
1,1,0.02756,0.01378,-0.01378*
1,1,0.02756,-0.01378,-0.01378*
1,1,0.02756,-0.01378,0.01378*
%
%ADD72ROUNDEDRECTD72*%
%ADD73R,0.06693X0.06693*%
%ADD74C,0.06693*%
%ADD75C,0.06299*%
G04:AMPARAMS|DCode=76|XSize=62.99mil|YSize=62.99mil|CornerRadius=15.75mil|HoleSize=0mil|Usage=FLASHONLY|Rotation=0.000|XOffset=0mil|YOffset=0mil|HoleType=Round|Shape=RoundedRectangle|*
%AMROUNDEDRECTD76*
21,1,0.06299,0.03150,0,0,0.0*
21,1,0.03150,0.06299,0,0,0.0*
1,1,0.03150,0.01575,-0.01575*
1,1,0.03150,-0.01575,-0.01575*
1,1,0.03150,-0.01575,0.01575*
1,1,0.03150,0.01575,0.01575*
%
%ADD76ROUNDEDRECTD76*%
%ADD77C,0.02756*%
%ADD78C,0.01000*%
G36*
X87500Y90261D02*
X87500Y20000D01*
X81957Y14457D01*
Y10481D01*
X81457Y10311D01*
X80959Y10960D01*
X80093Y11625D01*
X79083Y12043D01*
X78500Y12120D01*
Y8000D01*
X78000D01*
Y7500D01*
X73880D01*
X73957Y6917D01*
X74375Y5907D01*
X75041Y5040D01*
X75783Y4471D01*
X75632Y3971D01*
X60716D01*
X60546Y4471D01*
X61102Y4898D01*
X61799Y5806D01*
X62238Y6865D01*
X62387Y8000D01*
X62238Y9136D01*
X61799Y10194D01*
X61102Y11102D01*
X60194Y11799D01*
X59136Y12238D01*
X58000Y12387D01*
X56865Y12238D01*
X55806Y11799D01*
X54898Y11102D01*
X54201Y10194D01*
X53762Y9136D01*
X53613Y8000D01*
X53762Y6865D01*
X54201Y5806D01*
X54898Y4898D01*
X55454Y4471D01*
X55284Y3971D01*
X35985D01*
X35778Y4426D01*
X36372Y5103D01*
X37643Y7005D01*
X38655Y9057D01*
X39390Y11223D01*
X39836Y13466D01*
X39985Y15748D01*
X39836Y18030D01*
X39390Y20274D01*
X38655Y22439D01*
X37643Y24491D01*
X36372Y26392D01*
X34864Y28112D01*
X33145Y29620D01*
X31243Y30891D01*
X29191Y31903D01*
X27026Y32638D01*
X24782Y33084D01*
X22500Y33233D01*
X20218Y33084D01*
X17974Y32638D01*
X15809Y31903D01*
X13757Y30891D01*
X13541Y30746D01*
X13100Y30982D01*
Y46302D01*
X13600Y46394D01*
X14257Y45537D01*
X15207Y44808D01*
X16313Y44350D01*
X17500Y44194D01*
X18687Y44350D01*
X19793Y44808D01*
X20743Y45537D01*
X21471Y46487D01*
X21929Y47593D01*
X22086Y48779D01*
X21929Y49966D01*
X21471Y51072D01*
X20743Y52022D01*
X19793Y52751D01*
X18687Y53209D01*
X17500Y53365D01*
X16313Y53209D01*
X15207Y52751D01*
X14257Y52022D01*
X13600Y51165D01*
X13100Y51257D01*
Y57089D01*
X13600Y57181D01*
X14257Y56324D01*
X15207Y55596D01*
X16313Y55137D01*
X17500Y54981D01*
X18687Y55137D01*
X19793Y55596D01*
X20743Y56324D01*
X21471Y57274D01*
X21706Y57841D01*
X22196Y57938D01*
X22567Y57567D01*
X23224Y57128D01*
X23465Y57080D01*
X23641Y56612D01*
X23529Y56466D01*
X23071Y55360D01*
X22914Y54173D01*
X23071Y52986D01*
X23529Y51880D01*
X24257Y50931D01*
X25207Y50202D01*
X26313Y49744D01*
X27500Y49588D01*
X28687Y49744D01*
X29793Y50202D01*
X30743Y50931D01*
X31471Y51880D01*
X31929Y52986D01*
X32086Y54173D01*
X31929Y55360D01*
X31471Y56466D01*
X31426Y56525D01*
X31647Y56974D01*
X32406D01*
X32700Y56748D01*
X33327Y56488D01*
X34000Y56400D01*
X34673Y56488D01*
X35300Y56748D01*
X35839Y57161D01*
X36252Y57700D01*
X36512Y58327D01*
X36600Y59000D01*
X36512Y59673D01*
X36252Y60300D01*
X35839Y60839D01*
X35300Y61252D01*
X34673Y61512D01*
X34000Y61600D01*
X33327Y61512D01*
X32700Y61252D01*
X32406Y61026D01*
X30334D01*
X30164Y61526D01*
X30600Y61861D01*
X31297Y62769D01*
X31735Y63826D01*
X31818Y64461D01*
X27500D01*
Y64961D01*
X27000D01*
Y69279D01*
X26365Y69195D01*
X25308Y68757D01*
X24975Y68502D01*
X24526Y68723D01*
Y71734D01*
X24975Y71955D01*
X25207Y71777D01*
X26313Y71319D01*
X27500Y71162D01*
X28687Y71319D01*
X29793Y71777D01*
X30743Y72505D01*
X31471Y73455D01*
X31929Y74561D01*
X32086Y75748D01*
X31929Y76935D01*
X31471Y78041D01*
X30743Y78991D01*
X29793Y79719D01*
X28687Y80177D01*
X27500Y80334D01*
X26313Y80177D01*
X25207Y79719D01*
X24975Y79541D01*
X24526Y79762D01*
Y80696D01*
X25819Y81989D01*
X32046D01*
Y91082D01*
X22954D01*
Y84855D01*
X21855Y83756D01*
X21191Y83799D01*
X20743Y84384D01*
X19793Y85113D01*
X18687Y85571D01*
X17500Y85727D01*
X16313Y85571D01*
X15207Y85113D01*
X14257Y84384D01*
X13600Y83527D01*
X13100Y83620D01*
Y95100D01*
X3971D01*
Y104500D01*
X10405D01*
X11520Y103194D01*
X13373Y101611D01*
X15451Y100338D01*
X17702Y99406D01*
X20071Y98837D01*
X22500Y98646D01*
X24929Y98837D01*
X27298Y99406D01*
X29549Y100338D01*
X31627Y101611D01*
X33479Y103194D01*
X34595Y104500D01*
X69500D01*
X87500Y90261D01*
D02*
G37*
G36*
X212997Y125739D02*
X213047Y125450D01*
X211455Y123585D01*
X210142Y121443D01*
X209180Y119122D01*
X208594Y116678D01*
X208396Y114173D01*
X208594Y111668D01*
X209180Y109225D01*
X210142Y106903D01*
X211455Y104761D01*
X213087Y102850D01*
X214997Y101218D01*
X217140Y99905D01*
X219461Y98944D01*
X221904Y98357D01*
X224410Y98160D01*
X226915Y98357D01*
X229358Y98944D01*
X231679Y99905D01*
X233822Y101218D01*
X235686Y102811D01*
X235975Y102761D01*
X236187Y102683D01*
Y91650D01*
X235686Y91576D01*
X235674Y91618D01*
X234941Y92989D01*
X233955Y94191D01*
X232753Y95177D01*
X231382Y95910D01*
X229894Y96361D01*
X228346Y96514D01*
X226799Y96361D01*
X225311Y95910D01*
X223940Y95177D01*
X222738Y94191D01*
X221752Y92989D01*
X221019Y91618D01*
X220568Y90130D01*
X220415Y88583D01*
X220568Y87035D01*
X221019Y85548D01*
X221752Y84176D01*
X222738Y82974D01*
X223940Y81988D01*
X225311Y81255D01*
X226799Y80804D01*
X228346Y80652D01*
X229894Y80804D01*
X231382Y81255D01*
X232753Y81988D01*
X233955Y82974D01*
X234941Y84176D01*
X235674Y85548D01*
X235686Y85589D01*
X236187Y85515D01*
Y44406D01*
X235686Y44332D01*
X235674Y44374D01*
X234941Y45745D01*
X233955Y46947D01*
X232753Y47933D01*
X231382Y48666D01*
X229894Y49117D01*
X228346Y49270D01*
X226799Y49117D01*
X225311Y48666D01*
X223940Y47933D01*
X222738Y46947D01*
X221752Y45745D01*
X221019Y44374D01*
X220568Y42886D01*
X220415Y41339D01*
X220568Y39791D01*
X221019Y38304D01*
X221752Y36932D01*
X222738Y35730D01*
X223940Y34744D01*
X225311Y34011D01*
X226799Y33560D01*
X228346Y33408D01*
X229894Y33560D01*
X231382Y34011D01*
X232753Y34744D01*
X233955Y35730D01*
X234941Y36932D01*
X235674Y38304D01*
X235686Y38345D01*
X236187Y38271D01*
Y26049D01*
X235718Y25876D01*
X235174Y26513D01*
X233358Y28064D01*
X231321Y29312D01*
X229114Y30226D01*
X226791Y30784D01*
X224410Y30971D01*
X222028Y30784D01*
X219705Y30226D01*
X217498Y29312D01*
X215461Y28064D01*
X213645Y26513D01*
X212093Y24696D01*
X210845Y22659D01*
X209931Y20452D01*
X209374Y18129D01*
X209186Y15748D01*
X209374Y13367D01*
X209931Y11044D01*
X210845Y8837D01*
X212093Y6800D01*
X213645Y4984D01*
X214281Y4440D01*
X214108Y3971D01*
X111756D01*
X111591Y4358D01*
X111573Y4471D01*
X111999Y5026D01*
X112278Y5701D01*
X112373Y6425D01*
Y9575D01*
X112278Y10299D01*
X111999Y10974D01*
X111554Y11554D01*
X110974Y11999D01*
X110299Y12278D01*
X109575Y12374D01*
X107000D01*
Y125950D01*
X212919D01*
X212997Y125739D01*
D02*
G37*
%LPC*%
G36*
X28000Y69279D02*
Y65461D01*
X31818D01*
X31735Y66095D01*
X31297Y67153D01*
X30600Y68061D01*
X29692Y68757D01*
X28635Y69195D01*
X28000Y69279D01*
D02*
G37*
G36*
X43000Y59366D02*
X42327Y59277D01*
X41700Y59017D01*
X41161Y58604D01*
X40748Y58065D01*
X40488Y57438D01*
X40400Y56765D01*
X40488Y56092D01*
X40748Y55465D01*
X40974Y55171D01*
Y49094D01*
X40748Y48800D01*
X40488Y48173D01*
X40400Y47500D01*
X40488Y46827D01*
X40748Y46200D01*
X41161Y45661D01*
X41700Y45248D01*
X42327Y44988D01*
X43000Y44900D01*
X43673Y44988D01*
X44300Y45248D01*
X44839Y45661D01*
X45252Y46200D01*
X45512Y46827D01*
X45600Y47500D01*
X45512Y48173D01*
X45252Y48800D01*
X45026Y49094D01*
Y55171D01*
X45252Y55465D01*
X45512Y56092D01*
X45600Y56765D01*
X45512Y57438D01*
X45252Y58065D01*
X44839Y58604D01*
X44300Y59017D01*
X43673Y59277D01*
X43000Y59366D01*
D02*
G37*
G36*
X27500Y47971D02*
X26313Y47815D01*
X25207Y47357D01*
X24257Y46628D01*
X23529Y45679D01*
X23071Y44573D01*
X22914Y43386D01*
X23071Y42199D01*
X23529Y41093D01*
X24257Y40143D01*
X25207Y39415D01*
X26313Y38956D01*
X27500Y38800D01*
X28687Y38956D01*
X29793Y39415D01*
X30743Y40143D01*
X31471Y41093D01*
X31929Y42199D01*
X32086Y43386D01*
X31929Y44573D01*
X31471Y45679D01*
X30743Y46628D01*
X29793Y47357D01*
X28687Y47815D01*
X27500Y47971D01*
D02*
G37*
G36*
X77500Y12120D02*
X76917Y12043D01*
X75907Y11625D01*
X75041Y10960D01*
X74375Y10093D01*
X73957Y9083D01*
X73880Y8500D01*
X77500D01*
Y12120D01*
D02*
G37*
G36*
X163000Y93600D02*
X162327Y93512D01*
X161700Y93252D01*
X161161Y92839D01*
X160748Y92300D01*
X160488Y91673D01*
X160400Y91000D01*
X160488Y90327D01*
X160748Y89700D01*
X161161Y89161D01*
X161174Y89151D01*
Y85756D01*
X160016Y84598D01*
X160000Y84600D01*
X159327Y84512D01*
X158700Y84252D01*
X158161Y83839D01*
X157748Y83300D01*
X157488Y82673D01*
X157400Y82000D01*
X157488Y81327D01*
X157748Y80700D01*
X158161Y80161D01*
X158700Y79748D01*
X159327Y79488D01*
X160000Y79400D01*
X160673Y79488D01*
X161300Y79748D01*
X161839Y80161D01*
X162252Y80700D01*
X162512Y81327D01*
X162600Y82000D01*
X162598Y82016D01*
X164291Y83709D01*
X164291Y83709D01*
X164687Y84301D01*
X164826Y85000D01*
X164826Y85000D01*
Y89151D01*
X164839Y89161D01*
X165252Y89700D01*
X165512Y90327D01*
X165600Y91000D01*
X165512Y91673D01*
X165252Y92300D01*
X164839Y92839D01*
X164300Y93252D01*
X163673Y93512D01*
X163000Y93600D01*
D02*
G37*
G36*
X218216Y73604D02*
Y70382D01*
X221439D01*
X221376Y70862D01*
X220997Y71776D01*
X220395Y72561D01*
X219611Y73163D01*
X218697Y73541D01*
X218216Y73604D01*
D02*
G37*
G36*
X221439Y69382D02*
X218216D01*
Y66159D01*
X218697Y66223D01*
X219611Y66601D01*
X220395Y67203D01*
X220997Y67988D01*
X221376Y68901D01*
X221439Y69382D01*
D02*
G37*
G36*
X211221Y73860D02*
X208465D01*
X207792Y73771D01*
X207165Y73512D01*
X206626Y73098D01*
X206213Y72560D01*
X205953Y71933D01*
X205864Y71260D01*
Y68504D01*
X205953Y67831D01*
X206213Y67204D01*
X206626Y66665D01*
X207165Y66252D01*
X207792Y65992D01*
X208465Y65904D01*
X211221D01*
X211893Y65992D01*
X212521Y66252D01*
X213059Y66665D01*
X213472Y67204D01*
X213732Y67831D01*
X213787Y68248D01*
X214300Y68315D01*
X214436Y67988D01*
X215038Y67203D01*
X215822Y66601D01*
X216736Y66223D01*
X217216Y66159D01*
Y69882D01*
Y73604D01*
X216736Y73541D01*
X215822Y73163D01*
X215038Y72561D01*
X214436Y71776D01*
X214300Y71449D01*
X213787Y71516D01*
X213732Y71933D01*
X213472Y72560D01*
X213059Y73098D01*
X212521Y73512D01*
X211893Y73771D01*
X211221Y73860D01*
D02*
G37*
G36*
X217717Y64029D02*
X216684Y63893D01*
X215722Y63495D01*
X214895Y62861D01*
X214261Y62034D01*
X214050Y61525D01*
X213509D01*
X213298Y62034D01*
X212664Y62861D01*
X211838Y63495D01*
X210875Y63893D01*
X209842Y64029D01*
X208810Y63893D01*
X207847Y63495D01*
X207021Y62861D01*
X206387Y62034D01*
X205988Y61072D01*
X205853Y60039D01*
X205988Y59007D01*
X206387Y58044D01*
X207021Y57218D01*
X207847Y56584D01*
X208810Y56185D01*
X209842Y56049D01*
X210875Y56185D01*
X211838Y56584D01*
X212664Y57218D01*
X213298Y58044D01*
X213509Y58554D01*
X214050D01*
X214261Y58044D01*
X214895Y57218D01*
X215722Y56584D01*
X216684Y56185D01*
X217717Y56049D01*
X218749Y56185D01*
X219712Y56584D01*
X220538Y57218D01*
X221172Y58044D01*
X221571Y59007D01*
X221707Y60039D01*
X221571Y61072D01*
X221172Y62034D01*
X220538Y62861D01*
X219712Y63495D01*
X218749Y63893D01*
X217717Y64029D01*
D02*
G37*
G36*
X135000Y54600D02*
X134327Y54512D01*
X133700Y54252D01*
X133161Y53839D01*
X133151Y53826D01*
X123849D01*
X123839Y53839D01*
X123300Y54252D01*
X122673Y54512D01*
X122000Y54600D01*
X121327Y54512D01*
X120700Y54252D01*
X120161Y53839D01*
X119748Y53300D01*
X119488Y52673D01*
X119400Y52000D01*
X119488Y51327D01*
X119748Y50700D01*
X120093Y50250D01*
X119748Y49800D01*
X119488Y49173D01*
X119400Y48500D01*
X119488Y47827D01*
X119748Y47200D01*
X120161Y46661D01*
X120700Y46248D01*
X121327Y45988D01*
X122000Y45900D01*
X122673Y45988D01*
X123300Y46248D01*
X123839Y46661D01*
X123849Y46674D01*
X133151D01*
X133161Y46661D01*
X133700Y46248D01*
X134327Y45988D01*
X135000Y45900D01*
X135673Y45988D01*
X136300Y46248D01*
X136839Y46661D01*
X137252Y47200D01*
X137512Y47827D01*
X137600Y48500D01*
X137512Y49173D01*
X137252Y49800D01*
X136907Y50250D01*
X137252Y50700D01*
X137512Y51327D01*
X137600Y52000D01*
X137512Y52673D01*
X137252Y53300D01*
X136839Y53839D01*
X136300Y54252D01*
X135673Y54512D01*
X135000Y54600D01*
D02*
G37*
G36*
X123476Y25001D02*
X122500D01*
Y21500D01*
X126001D01*
Y22476D01*
X125809Y23443D01*
X125262Y24262D01*
X124443Y24809D01*
X123476Y25001D01*
D02*
G37*
G36*
X121500D02*
X120524D01*
X119557Y24809D01*
X118738Y24262D01*
X118191Y23443D01*
X117999Y22476D01*
Y21500D01*
X121500D01*
Y25001D01*
D02*
G37*
G36*
X126001Y20500D02*
X122500D01*
Y16999D01*
X123476D01*
X124443Y17191D01*
X125262Y17738D01*
X125809Y18557D01*
X126001Y19524D01*
Y20500D01*
D02*
G37*
G36*
X121500D02*
X117999D01*
Y19524D01*
X118191Y18557D01*
X118738Y17738D01*
X119557Y17191D01*
X120524Y16999D01*
X121500D01*
Y20500D01*
D02*
G37*
G36*
X144076Y25153D02*
X139924D01*
X137847Y23076D01*
Y18924D01*
X139924Y16847D01*
X144076D01*
X146153Y18924D01*
Y23076D01*
X144076Y25153D01*
D02*
G37*
G36*
X134076D02*
X129924D01*
X127847Y23076D01*
Y18924D01*
X129924Y16847D01*
X134076D01*
X136153Y18924D01*
Y23076D01*
X134076Y25153D01*
D02*
G37*
%LPD*%
D62*
X22500Y81535D02*
X27500Y86535D01*
X22500Y60500D02*
Y81535D01*
Y60500D02*
X24000Y59000D01*
X34000D01*
X43000Y47500D02*
Y56765D01*
D63*
X160000Y82000D02*
X163000Y85000D01*
Y91000D01*
X122000Y52000D02*
X135000D01*
X122000Y48500D02*
X135000D01*
D68*
X122000Y21000D02*
D03*
D69*
X132000D02*
D03*
X142000D02*
D03*
D70*
X228346Y41339D02*
D03*
Y88583D02*
D03*
D71*
X217717Y60039D02*
D03*
Y69882D02*
D03*
X209842Y60039D02*
D03*
D72*
Y69882D02*
D03*
D73*
X27500Y86535D02*
D03*
D74*
Y75748D02*
D03*
Y64961D02*
D03*
Y54173D02*
D03*
Y43386D02*
D03*
X17500Y81142D02*
D03*
Y70354D02*
D03*
Y59567D02*
D03*
Y48779D02*
D03*
D75*
X78000Y8000D02*
D03*
X58000D02*
D03*
X98000D02*
D03*
D76*
X108000Y8000D02*
D03*
D77*
X174500Y22000D02*
D03*
X145000Y37000D02*
D03*
X132000Y34500D02*
D03*
X111000Y29500D02*
D03*
X71000Y38000D02*
D03*
X108500Y124500D02*
D03*
X115500Y90500D02*
D03*
X160000Y82000D02*
D03*
X163000Y91000D02*
D03*
X152000Y93000D02*
D03*
X133500Y109500D02*
D03*
X108500Y14500D02*
D03*
X34000Y59000D02*
D03*
X43000Y56765D02*
D03*
X196000Y79000D02*
D03*
X141500Y9500D02*
D03*
X84000Y58500D02*
D03*
X82500Y33000D02*
D03*
X78500Y49500D02*
D03*
Y81500D02*
D03*
X71500Y69500D02*
D03*
X84500Y90500D02*
D03*
X43000Y47500D02*
D03*
X44000Y28000D02*
D03*
X52000Y60000D02*
D03*
Y72000D02*
D03*
X122000Y48500D02*
D03*
Y52000D02*
D03*
X135000Y48500D02*
D03*
Y52000D02*
D03*
X133000Y59000D02*
D03*
X185000Y25000D02*
D03*
X175000Y79500D02*
D03*
X177000Y38000D02*
D03*
X198000Y99000D02*
D03*
X207000Y95000D02*
D03*
X200500Y54000D02*
D03*
X162000Y17500D02*
D03*
X40000Y102500D02*
D03*
X113000Y63000D02*
D03*
D78*
X5502Y93500D02*
X11500D01*
Y90501D01*
X10500Y89501D01*
X6502D01*
X5502Y90501D01*
Y93500D01*
Y83503D02*
Y87502D01*
X8501D01*
X7501Y85503D01*
Y84503D01*
X8501Y83503D01*
X10500D01*
X11500Y84503D01*
Y86502D01*
X10500Y87502D01*
X6502Y81504D02*
X5502Y80504D01*
Y78505D01*
X6502Y77505D01*
X10500D01*
X11500Y78505D01*
Y80504D01*
X10500Y81504D01*
X6502D01*
Y75506D02*
X5502Y74506D01*
Y72507D01*
X6502Y71507D01*
X7501D01*
X8501Y72507D01*
Y73506D01*
Y72507D01*
X9501Y71507D01*
X10500D01*
X11500Y72507D01*
Y74506D01*
X10500Y75506D01*
X5502Y65509D02*
Y69508D01*
X8501D01*
X7501Y67508D01*
Y66509D01*
X8501Y65509D01*
X10500D01*
X11500Y66509D01*
Y68508D01*
X10500Y69508D01*
X8501Y63510D02*
Y59511D01*
X6502Y57512D02*
X5502Y56512D01*
Y54513D01*
X6502Y53513D01*
X10500D01*
X11500Y54513D01*
Y56512D01*
X10500Y57512D01*
X6502D01*
X11500Y51514D02*
Y49514D01*
Y50514D01*
X5502D01*
X6502Y51514D01*
X8501Y46515D02*
Y42516D01*
X6502Y40517D02*
X5502Y39518D01*
Y37518D01*
X6502Y36518D01*
X10500D01*
X11500Y37518D01*
Y39518D01*
X10500Y40517D01*
X6502D01*
X5502Y30520D02*
Y34519D01*
X8501D01*
X7501Y32520D01*
Y31520D01*
X8501Y30520D01*
X10500D01*
X11500Y31520D01*
Y33519D01*
X10500Y34519D01*
M02*
